<?xml version="1.0" encoding="UTF-8"?><!DOCTYPE svg PUBLIC "-//W3C//DTD SVG 1.1//EN" "http://www.w3.org/Graphics/SVG/1.1/DTD/svg11.dtd"><svg xmlns="http://www.w3.org/2000/svg" xmlns:xlink="http://www.w3.org/1999/xlink"><defs>
        <style>.cls-1{fill:#fff;}</style>
    </defs><symbol id="arrow-down" viewBox="0 0 24 24">
<style type="text/css">
	.st0{fill:#00aaff;}
	.st1{fill:none;}
</style>
    <path class="st0" d="M16.5900002,8.5899849l-4.5899992,4.5799999L7.4099998,8.5899849L6,9.9999847l6,6l6-6L16.5900002,8.5899849z"/>
    <path class="st1" d="M0.0000001,23.9999847v-24h24v24H0.0000001z"/>
</symbol><symbol id="arrow-up" viewBox="0 0 24 24">
<style type="text/css">
	.st0{fill:#00aaff;}
	.st1{fill:none;}
</style>
    <path class="st0" d="M7.4099998,15.4099846l4.5899992-4.5799999l4.5900011,4.5799999L18,13.9999847l-6-6l-6,6L7.4099998,15.4099846z  "/>
    <path class="st1" d="M24-0.0000151v24h-24v-24H24z"/>
</symbol><symbol id="icon-checked" viewBox="0 0 11.06 8.68">
    
    <title>Asset 3</title>
    <g id="Layer_2" data-name="Layer 2">
        <g id="&#x421;&#x43B;&#x43E;&#x439;_1" data-name="&#x421;&#x43B;&#x43E;&#x439; 1">
            <polygon class="cls-1" points="9.73 0 3.71 6.03 1.32 3.65 0 4.97 3.71 8.68 11.06 1.32 9.73 0"/>
        </g>
    </g>
</symbol><symbol id="search" viewBox="0 0 24 24">
<style type="text/css">
	.st0{fill:#c3c8cd;}
	.st1{fill:none;}
</style>
    <g>
	<path class="st0" d="M15.5,14h-0.79l-0.2799997-0.2700005C15.4099998,12.5900002,16,11.1099997,16,9.5   C16,5.9099998,13.0900002,3,9.5,3S3,5.9099998,3,9.5S5.9099998,16,9.5,16c1.6099997,0,3.0900002-0.5900002,4.2299995-1.5699997   L14,14.71v0.79l5,4.9899998L20.4899998,19L15.5,14z M9.5,14C7.0100002,14,5,11.9899998,5,9.5S7.0100002,5,9.5,5   S14,7.0100002,14,9.5S11.9899998,14,9.5,14z"/>
        <path class="st1" d="M0,0h24v24H0V0z"/>
</g>
</symbol><symbol id="test--desktop" viewBox="0 0 434.3 200">
<style type="text/css">
	.st0{opacity:5.000000e-02;fill:#59C5FB;enable-background:new    ;}
	.st1{opacity:8.000000e-02;fill:#59C5FB;enable-background:new    ;}
	.st2{opacity:0.1;fill:#59C5FB;enable-background:new    ;}
	.st3{fill:none;stroke:#37414B;stroke-width:1.5;stroke-linecap:round;stroke-linejoin:round;stroke-miterlimit:10;}
	.st4{fill:#37414B;}
	.st5{fill:#84D1F5;}
	.st6{fill:#FFFFFF;}
	.st7{fill:none;stroke:#FFFFFF;stroke-width:1.5;stroke-linecap:round;stroke-linejoin:round;stroke-miterlimit:10;}
	.st8{fill:#FFFFFF;stroke:#37414B;stroke-width:1.5;stroke-linecap:round;stroke-linejoin:round;stroke-miterlimit:10;}
	.st9{fill:none;stroke:#C3C8CD;stroke-width:1.5;stroke-linecap:round;stroke-linejoin:round;stroke-miterlimit:10;}
	.st10{fill:none;stroke:#84D1F5;stroke-width:1.5;stroke-linecap:round;stroke-linejoin:round;stroke-miterlimit:10;}
	.st11{fill:none;}
	.st12{fill:none;stroke:#84D1F5;stroke-width:1.5;stroke-linecap:round;stroke-linejoin:round;}
	.st13{fill:none;stroke:#84D1F5;stroke-width:1.5;stroke-linecap:round;stroke-linejoin:round;stroke-dasharray:2.9356,4.8926;}
	.st14{fill:none;stroke:#37414B;stroke-width:1.5;stroke-linecap:round;stroke-linejoin:round;}
	.st15{fill:none;stroke:#37414B;stroke-width:1.5;stroke-linecap:round;stroke-linejoin:round;stroke-dasharray:2.8259,4.7099;}
	.st16{fill:none;stroke:#37414B;stroke-width:1.5;stroke-linecap:round;stroke-miterlimit:10;}
	.st17{opacity:0.7;}
	.st18{fill:none;stroke:#37414B;stroke-width:1.5;stroke-linecap:round;stroke-linejoin:round;stroke-dasharray:2.9356,4.8926;}
	.st19{fill:none;stroke:#37414C;stroke-width:1.5;stroke-linecap:round;stroke-linejoin:round;stroke-miterlimit:10;}
	.st20{fill:#E0E3E5;}
	.st21{fill:#84D1F5;stroke:#37414B;stroke-width:1.5;stroke-linecap:round;stroke-linejoin:round;stroke-miterlimit:10;}
	.st22{fill:#E0E3E5;stroke:#37414B;stroke-width:1.5;stroke-linecap:round;stroke-linejoin:round;stroke-miterlimit:10;}
</style>
<g>
	<g>
		<circle class="st0" cx="186.2" cy="100" r="100"/>
		<circle class="st1" cx="237.3" cy="100" r="87.3"/>
		<circle class="st2" cx="195.9" cy="93.4" r="69.3"/>
	</g>
	<line class="st3" x1="61.3" y1="165.8" x2="49.8" y2="165.8"/>
	<g>
		
			<ellipse transform="matrix(0.9999 -1.272724e-02 1.272724e-02 0.9999 -8.018011e-02 1.5984)" class="st4" cx="125.5" cy="7.1" rx="1.1" ry="1.1"/>
		
			<ellipse transform="matrix(0.9999 -1.272724e-02 1.272724e-02 0.9999 -0.1311 1.6)" class="st4" cx="125.6" cy="11.1" rx="1.1" ry="1.1"/>
		<ellipse transform="matrix(0.6981 -0.716 0.716 0.6981 27.129 94.5503)" class="st4" cx="125.7" cy="15.1" rx="1.1" ry="1.1"/>
		
			<ellipse transform="matrix(0.9999 -1.272724e-02 1.272724e-02 0.9999 -0.1327 1.5504)" class="st4" cx="121.7" cy="11.2" rx="1.1" ry="1.1"/>
		
			<ellipse transform="matrix(0.9999 -1.272724e-02 1.272724e-02 0.9999 -0.1308 1.6484)" class="st4" cx="129.4" cy="11.1" rx="1.1" ry="1.1"/>
	</g>
	<g>
		<ellipse transform="matrix(0.9446 -0.3283 0.3283 0.9446 8.8121 106.6175)" class="st4" cx="320.2" cy="27.2" rx="0.9" ry="0.9"/>
		<ellipse transform="matrix(0.9446 -0.3283 0.3283 0.9446 8.322 105.6788)" class="st4" cx="317.1" cy="28.2" rx="0.9" ry="0.9"/>
		
			<ellipse transform="matrix(0.4358 -0.9001 0.9001 0.4358 150.8373 299.1969)" class="st4" cx="314.1" cy="29.3" rx="0.9" ry="0.9"/>
		<ellipse transform="matrix(0.9446 -0.3283 0.3283 0.9446 9.2092 105.1628)" class="st4" cx="316.1" cy="25.3" rx="0.9" ry="0.9"/>
		<ellipse transform="matrix(0.9446 -0.3283 0.3283 0.9446 7.3918 106.1748)" class="st4" cx="318.1" cy="31.2" rx="0.9" ry="0.9"/>
	</g>
	<g>
		<ellipse transform="matrix(0.9446 -0.3283 0.3283 0.9446 -53.9552 47.2477)" class="st4" cx="113" cy="183.4" rx="1.3" ry="1.3"/>
		
			<ellipse transform="matrix(0.9446 -0.3283 0.3283 0.9446 -54.6842 45.9185)" class="st4" cx="108.7" cy="184.9" rx="1.3" ry="1.3"/>
		
			<ellipse transform="matrix(0.4358 -0.9001 0.9001 0.4358 -108.9017 199.1093)" class="st4" cx="104.4" cy="186.4" rx="1.3" ry="1.3"/>
		
			<ellipse transform="matrix(0.9446 -0.3283 0.3283 0.9446 -53.4223 45.2036)" class="st4" cx="107.2" cy="180.8" rx="1.3" ry="1.3"/>
		<ellipse transform="matrix(0.9446 -0.3283 0.3283 0.9446 -55.9723 46.64)" class="st4" cx="110.1" cy="189.1" rx="1.3" ry="1.3"/>
	</g>
	<g>
		<rect x="352" y="140.6" class="st3" width="2.5" height="9.1"/>
		<g>
			<g>
				<path class="st5" d="M346.5,172.4H335c-1.3,0-2.3-1.1-2.3-2.3v-51.5c0-1.3,1.1-2.3,2.3-2.3h11.5c1.3,0,2.3,1.1,2.3,2.3v51.5
					C349,171.4,347.8,172.4,346.5,172.4z"/>
				<line class="st3" x1="349" y1="128.5" x2="349" y2="165.2"/>
				<path class="st3" d="M346.5,116.3c1.3,0,2.3,1.1,2.3,2.3v4.7"/>
				<path class="st3" d="M332.8,160.7v-42c0-1.3,1.1-2.3,2.3-2.3h5.7h2.7"/>
			</g>
			<path class="st3" d="M349,168v2.1c0,1.3-1.1,2.3-2.3,2.3h-11.5c-1.3,0-2.3-1.1-2.3-2.3v-5.9"/>
		</g>
		<g>
			<path class="st6" d="M348,157.1h-14.2c-2.6,0-4.7-2.1-4.7-4.7v-16.2c0-2.6,2.1-4.7,4.7-4.7H348c2.6,0,4.7,2.1,4.7,4.7v16.2
				C352.5,155,350.5,157.1,348,157.1z"/>
			<path class="st3" d="M344.8,157.1h-11.1c-2.6,0-4.7-2.1-4.7-4.7v-16.2c0-2.6,2.1-4.7,4.7-4.7h2.4"/>
			<path class="st3" d="M340.8,131.6h7.1c2.6,0,4.7,2.1,4.7,4.7v16.2c0,2.6-2.1,4.7-4.7,4.7"/>
		</g>
		<g transform="translate(0,-952.36218)">
			<path class="st3" d="M334,1091.5c-1.6,1.6-1.6,4.3,0,5.9l6.9,7.3c2.3-2.4,4.6-4.8,6.9-7.3c1.6-1.6,1.6-4.3,0-5.9
				c-1.6-1.6-4.1-1.6-5.6,0l-1.3,1.3l-1.3-1.3C338,1089.9,335.5,1089.9,334,1091.5z"/>
		</g>
		<polyline class="st3" points="337.3,145.4 339.7,145.4 340.8,142.6 342.8,147.2 343.8,140.5 345,145.7 350.5,145.7 		"/>
	</g>
	<g>
		<path class="st5" d="M155.3,64.1c6,2.5,16.5-13.2,10.6-22.1c-5.9-9-15.4-2.8-15.4-2.8s-11.1-2.2-13.2,8.3
			C135.1,58,150.8,68.7,155.3,64.1z"/>
		<path class="st3" d="M150.3,64.9c2.1,0.5,3.9,0.3,5-0.8c2.1,0.9,4.8-0.5,7.1-3c0.6-0.6,1.1-1.3,1.7-2.1c0.9-1.3,1.6-2.7,2.2-4.2
			c0.2-0.5,0.4-1.1,0.6-1.6c1.2-3.8,1.2-8-1-11.2c-5.9-9-15.4-2.8-15.4-2.8s-9.1-1.8-12.4,5.7"/>
		<path class="st3" d="M137.3,47.5c-1.3,6,3.3,12.1,8.4,15.3"/>
		<path class="st7" d="M142.6,55.5c-1.4-1.9-2.7-4.5-2.1-7.4"/>
		<path class="st7" d="M149.1,61c-1.5-0.7-3.2-1.9-4.8-3.5"/>
		<path class="st3" d="M152.8,61.8"/>
		<path class="st3" d="M154.6,60.2"/>
		<path class="st7" d="M163.1,43.8c2.3,3.5,0.7,8.2,0,10.1"/>
		<g>
			<path class="st8" d="M140.8,35.6c-2.2,0.3-4.3,0.9-4.3,0.9s4,12.6,13.1,5.5c0,0,0.6-6.2-6.1-6.5c-0.2,0-0.5,0-0.7,0"/>
			<path class="st8" d="M149.6,42c0,0-3.3-4.5-9-4"/>
		</g>
		<path class="st8" d="M150.6,42.6h0.1c0.4-0.2,0.6-0.6,0.4-1c-0.1-0.1-1.2-3.1,1.5-5.2c0.3-0.3,0.4-0.8,0.1-1.1
			c-0.3-0.3-0.8-0.4-1.1-0.1c-2.9,2.3-2.6,5.6-2,7C149.8,42.4,150.1,42.6,150.6,42.6z"/>
	</g>
	<g>
		<line class="st3" x1="317.2" y1="165.7" x2="320.3" y2="165.7"/>
		<line class="st3" x1="320" y1="165.7" x2="323.8" y2="165.7"/>
		<line class="st3" x1="70.9" y1="165.7" x2="301.5" y2="165.7"/>
		<line class="st3" x1="95.1" y1="165.7" x2="103.8" y2="165.7"/>
	</g>
	<g>
		<line class="st9" x1="326.5" y1="75.2" x2="369.3" y2="75.2"/>
		<line class="st10" x1="381" y1="62.3" x2="423.7" y2="62.3"/>
		<g>
			<line class="st11" x1="345.8" y1="62.3" x2="377.2" y2="62.3"/>
			<g>
				<line class="st12" x1="345.8" y1="62.3" x2="347.3" y2="62.3"/>
				<line class="st13" x1="352.2" y1="62.3" x2="373.2" y2="62.3"/>
				<line class="st12" x1="375.7" y1="62.3" x2="377.2" y2="62.3"/>
			</g>
		</g>
		<g>
			<line class="st14" x1="324" y1="88.3" x2="325.5" y2="88.3"/>
			<line class="st15" x1="330.3" y1="88.3" x2="350.5" y2="88.3"/>
			<line class="st14" x1="352.8" y1="88.3" x2="354.3" y2="88.3"/>
		</g>
		<g>
			<line class="st3" x1="357.8" y1="88.3" x2="433.3" y2="88.3"/>
			<line class="st16" x1="429.5" y1="84" x2="433.5" y2="88.3"/>
			<line class="st16" x1="429.5" y1="92.6" x2="433.5" y2="88.3"/>
		</g>
	</g>
	<g class="st17">
		<line class="st9" x1="56.3" y1="75.5" x2="13.6" y2="75.5"/>
		<line class="st3" x1="43.4" y1="94.5" x2="0.8" y2="94.5"/>
		<g>
			<line class="st14" x1="78.6" y1="94.5" x2="77.1" y2="94.5"/>
			<line class="st18" x1="72.3" y1="94.5" x2="51.3" y2="94.5"/>
			<line class="st14" x1="48.8" y1="94.5" x2="47.3" y2="94.5"/>
		</g>
	</g>
	<g>
		<line class="st19" x1="151.3" y1="165.6" x2="96.1" y2="165.6"/>
		<path class="st20" d="M237.2,57.9h8.5h12c6.4,0,11.6,5.1,11.6,11.3v85.1c0,6.3-5.2,11.3-11.6,11.3h-92.9
			c-6.4,0-11.6-5.1-11.6-11.3V69.2c0-6.3,5.2-11.3,11.6-11.3C164.8,57.9,237.2,57.9,237.2,57.9z"/>
		<path class="st8" d="M163.3,81.7V70.9c0-1.7,1.5-3,3.3-3H256c1.8,0,3.3,1.4,3.3,3v81.8c0,1.7-1.5,3-3.3,3h-89.4
			c-1.8,0-3.3-1.4-3.3-3v-47.6"/>
		<g>
			<line class="st3" x1="173.1" y1="92.4" x2="204.9" y2="92.4"/>
			<line class="st3" x1="173.1" y1="103.7" x2="204.9" y2="103.7"/>
			<line class="st3" x1="173.1" y1="115.1" x2="204.9" y2="115.1"/>
			<line class="st3" x1="216.6" y1="92.4" x2="248.4" y2="92.4"/>
			<line class="st3" x1="216.6" y1="103.7" x2="248.4" y2="103.7"/>
			<line class="st3" x1="216.6" y1="115.1" x2="248.4" y2="115.1"/>
		</g>
		<path class="st3" d="M153.3,73.1v-3.9c0-6.3,5.2-11.3,11.6-11.3h8.2"/>
		<path class="st3" d="M269.5,136.2v18.1c0,6.3-5.2,11.3-11.6,11.3h-92.9c-6.4,0-11.6-5.1-11.6-11.3V85.9"/>
		<path class="st3" d="M249.2,57.9h8.6c6.4,0,11.6,5.1,11.6,11.3v37.1"/>
		<path class="st6" d="M240.2,58.6c0.1,1.1,0.2,2,0.2,3.2c0,7.3-2.8,13.9-7.5,19h-43.4c-4.6-5-7.5-11.7-7.5-19
			c0-15.7,13.1-28.5,29.2-28.5c11.4,0,21.2,6.3,26,15.6C238.9,52,240.2,58.6,240.2,58.6z"/>
		<path class="st21" d="M232.7,59.6c0.1,0.8,0.1,1.3,0.1,2c0,4.2-1.3,8.3-3.8,11.8h-35.2c-2.5-3.5-3.8-7.6-3.8-11.8
			c0-11.5,9.6-20.8,21.4-20.8c8.1,0,15.5,4.4,19.1,11.4"/>
		<line class="st3" x1="206.7" y1="60.8" x2="197.2" y2="60.8"/>
		<path class="st8" d="M211.3,56.7c-2.3,0-4.2,1.8-4.2,4.1c0,2.3,1.9,4.1,4.2,4.1c2.3,0,4.2-1.8,4.2-4.1S213.7,56.7,211.3,56.7z"/>
		<path class="st3" d="M185.7,48.2c-2.2,4-3.5,8.7-3.5,13.6c0,7.3,2.8,13.9,7.5,19h43.4c4.6-5,7.5-11.7,7.5-19c0-1.2-0.1-2-0.2-3.2"/>
		<path class="st3" d="M237.3,48.9c-4.8-9.2-14.7-15.6-26-15.6c-3.7,0-7.3,0.7-10.5,1.9"/>
		<line class="st19" x1="252.8" y1="165.6" x2="323.3" y2="165.6"/>
	</g>
	<g>
		<g>
			<path class="st20" d="M123.1,91.2l-5.8,9.3c-0.7,1.2-0.4,2.8,0.8,3.5l5.4,3.4l2,1.3v0.2c-0.3,1.9-1.2,3.6-2.6,5l-2,1.9
				c-2.2,2.1-4.2,4.6-5.9,7.2l-0.1,0.1l-0.3,0.5c-1.8,2.8-3.2,5.9-4.3,9.1l-0.9,2.6c-0.6,1.8-1.8,3.4-3.3,4.5l-0.2,0.1l-2-1.3
				l-5.4-3.4c-1.2-0.7-2.8-0.4-3.5,0.8l-0.2,0.4l-1.7,2.7l-3.9,6.2c-0.7,1.2-0.4,2.8,0.8,3.5l5.4,3.4l12.2,7.6l0.7,0.4l2.6,1.6
				l5.4,3.4c1.2,0.7,2.8,0.4,3.5-0.8l5.8-9.3c0.7-1.2,0.4-2.8-0.8-3.5l-5.4-3.4l-2-1.3v-0.2c0.3-1.9,1.2-3.6,2.6-5l2-1.9
				c2.4-2.4,4.5-5,6.3-7.8l0.3-0.5c0-0.1,0.1-0.1,0.1-0.2c1.6-2.7,2.9-5.5,3.9-8.4l0.9-2.6c0.6-1.8,1.8-3.4,3.3-4.5l0.2-0.1l2,1.3
				l5.4,3.4c1.1,0.7,2.6,0.4,3.4-0.6l0.1-0.1l0.1-0.1l1.6-2.6l4.2-6.7c0.7-1.2,0.4-2.8-0.8-3.5l-5.4-3.4l-6.5-4.1l-2.7-1.7l-6.2-3.9
				l-5.4-3.4C125.6,89.6,123.9,90,123.1,91.2z"/>
			<line class="st3" x1="106.1" y1="140" x2="117.3" y2="147.1"/>
			<line class="st3" x1="125.6" y1="108.6" x2="138.1" y2="116.5"/>
			<line class="st3" x1="94.6" y1="151.8" x2="102.8" y2="138.6"/>
			<line class="st7" x1="100.1" y1="148.7" x2="104.1" y2="142.5"/>
			<line class="st7" x1="138.3" y1="113.7" x2="142.1" y2="107.5"/>
			<line class="st7" x1="143.8" y1="104.9" x2="145.3" y2="102.4"/>
			<line class="st3" x1="122.8" y1="106.6" x2="131.1" y2="93.4"/>
			<line class="st3" x1="111.6" y1="162.4" x2="119.8" y2="149.2"/>
			<line class="st3" x1="139.8" y1="117.2" x2="148.1" y2="104"/>
			<path class="st3" d="M134.4,95.2l-7.7-4.8c-1.2-0.7-2.8-0.4-3.5,0.8l-5.8,9.3c-0.7,1.2-0.4,2.8,0.8,3.5l5.4,3.4l2,1.3v0.2
				c-0.3,1.9-1.2,3.6-2.6,5l-2,1.9c-2.2,2.1-4.2,4.6-5.9,7.2l-0.1,0.1l-0.3,0.5c-1.8,2.8-3.2,5.9-4.3,9.1l-0.9,2.6
				c-0.6,1.8-1.8,3.4-3.3,4.5l-0.2,0.1l-2-1.3l-5.4-3.4c-1.2-0.7-2.8-0.4-3.5,0.8l-0.2,0.4l-1.7,2.7 M150.3,115.6l3.4-5.4
				c0.7-1.2,0.4-2.8-0.8-3.5l-5.4-3.4l-6.5-4.1l0,0 M110.1,161.4l6.2,3.9c1.2,0.7,2.8,0.4,3.5-0.8l5.8-9.3c0.7-1.2,0.4-2.8-0.8-3.5
				l-5.4-3.4l-2-1.3v-0.2c0.3-1.9,1.2-3.6,2.6-5l2-1.9c2.4-2.4,4.5-5,6.3-7.8l0.3-0.5c0-0.1,0.1-0.1,0.1-0.2
				c1.6-2.7,2.9-5.5,3.9-8.4l0.9-2.6c0.6-1.8,1.8-3.4,3.3-4.5l0.2-0.1l2,1.3l5.4,3.4c1.1,0.7,2.6,0.4,3.4-0.6l0.1-0.1l0.1-0.1
				 M89.3,145.4c-0.7,1.2-0.4,2.8,0.8,3.5l5.4,3.4l8.9,5.6l3.2,2"/>
			<path class="st7" d="M126.8,116.2l-2,1.9c-2.2,2.1-4.2,4.6-5.9,7.2l-0.1,0.1l-0.3,0.5c-1.8,2.8-3.2,5.9-4.3,9.1l-0.9,2.6"/>
		</g>
	</g>
	<g>
		<g>
			<path class="st22" d="M102.1,128.1H73.8c-0.7,0-1.2-0.6-1.2-1.2v-5.6c0-1.3,1-2.3,2.3-2.3h25c1.3,0,2.3,1,2.3,2.3v6.8H102.1z"/>
			<line class="st3" x1="77.1" y1="122.4" x2="77.1" y2="128.1"/>
			<line class="st3" x1="82.3" y1="123.2" x2="82.3" y2="128.1"/>
			<line class="st3" x1="87.6" y1="124" x2="87.6" y2="128.1"/>
			<line class="st3" x1="75.3" y1="130.8" x2="75.3" y2="128.1"/>
			<line class="st3" x1="99.3" y1="130.8" x2="99.3" y2="128.1"/>
			<path class="st8" d="M75.3,130.8L75.3,130.8c0,2.2-1,2.7-2.7,4.2l-1.2,1.1c-1.7,1.5-2.7,3.6-2.7,5.9v20c0,2,1.6,3.7,3.7,3.7h14.9
				"/>
			<path class="st8" d="M99.3,130.8L99.3,130.8c0,2.2,1,2.7,2.7,4.2l1.2,1.1c1.7,1.5,2.7,3.6,2.7,5.9v20c0,2-1.6,3.7-3.7,3.7H87.3"/>
			<rect x="69.3" y="142" class="st20" width="35.9" height="13.7"/>
			<rect x="83.4" y="130.8" class="st6" width="15.2" height="17.9"/>
			<rect x="73.8" y="139.5" class="st21" width="27" height="18.9"/>
			<line class="st3" x1="73.8" y1="142.2" x2="68.8" y2="142.2"/>
			<line class="st3" x1="73.8" y1="155.7" x2="68.8" y2="155.7"/>
			<line class="st3" x1="100.8" y1="142.2" x2="105.8" y2="142.2"/>
			<line class="st3" x1="100.8" y1="155.7" x2="105.8" y2="155.7"/>
		</g>
		<path class="st8" d="M88.1,152.4h6.1c1.7,0,3.2-1.6,3.1-3.4c0-1.9-1.4-3.4-3.2-3.4h-6.1"/>
		<path class="st8" d="M88.1,149.4c0-1.7,0-3.8,0-3.9H82c-1.7,0-3.2,1.6-3.1,3.4c0,1.9,1.4,3.4,3.2,3.4h6.1"/>
	</g>
	<g>
		<path class="st20" d="M323.5,125.8c0-6.6-15.7-11.7-35.7-11.7c-0.6,0-1.3,0-1.9,0c-26.4,0.3-46.8,7.4-46.8,16.3
			c0,0,3.5,7.6,14,10.5c20.7,5.7,53.9-5.3,65-10.2L323.5,125.8z"/>
		<path class="st6" d="M253.1,127c0,0.4,4.2,3.5,4.2,3.5l12.2,4.1l12.4,1.7h16.6l12.2-2.8l8.6-3.7l3.3-2.4v16.2l-4.4,4.5l6.5,1.7
			l9.8,5.9l1.7,4.4v20.6l-6.1-5.3l-10.3-3.7l-12.5-2.6l-18.2-0.3l-16.2-1l-13.1-1.9l-10.5-3.2l-7-5.1l-2.7-3.8l0.3-20.9l3.8,3.1
			l6.5,3.6l2.8,1.1V127H253.1z"/>
		<path class="st3" d="M295.3,126.4c-2.3,0.2-4.9,0.3-7.6,0.3c-10,0-18-1.4-18-3.1c0-1.7,8.1-3.1,18-3.1c10,0,18,1.4,18,3.1
			c0,0.8-1.8,1.5-4.6,2.1"/>
		<path class="st3" d="M263.5,127.2c-1.6-0.9-2.6-1.9-2.6-3c0-3.9,12-7,26.8-7s26.8,3.1,26.8,7s-12,7-26.8,7
			c-4.8,0-9.2-0.3-13.1-0.9"/>
		<ellipse class="st3" cx="287.8" cy="125.2" rx="34.7" ry="11.1"/>
		<path class="st3" d="M287.8,145.8c-26.4,0-47.8-7.1-47.8-15.9c0-8.8,21.4-15.9,47.8-15.9"/>
		<path class="st3" d="M287.8,145.8c12.9,0,48.4,0.8,48.4,15.1v8.4"/>
		<line class="st3" x1="261.3" y1="155.9" x2="261.3" y2="166.1"/>
		<line class="st3" x1="266.5" y1="156.9" x2="266.5" y2="167.1"/>
		<line class="st3" x1="271.8" y1="153.8" x2="271.8" y2="167.8"/>
		<line class="st3" x1="277.2" y1="158.2" x2="277.2" y2="168.3"/>
		<line class="st3" x1="282.5" y1="158.5" x2="282.5" y2="168.6"/>
		<line class="st3" x1="287.8" y1="154.7" x2="287.8" y2="168.8"/>
		<line class="st3" x1="293" y1="158.6" x2="293" y2="168.8"/>
		<line class="st3" x1="298.3" y1="158.8" x2="298.3" y2="169"/>
		<line class="st3" x1="303.7" y1="155.2" x2="303.7" y2="169.3"/>
		<line class="st3" x1="309" y1="159.6" x2="309" y2="169.8"/>
		<line class="st3" x1="314.3" y1="160.3" x2="314.3" y2="170.5"/>
		<line class="st3" x1="319.7" y1="157.5" x2="319.7" y2="171.5"/>
		<line class="st3" x1="325" y1="162.8" x2="325" y2="173"/>
		<line class="st3" x1="258.2" y1="135.9" x2="258.2" y2="142.3"/>
		<line class="st3" x1="263.5" y1="139.7" x2="263.5" y2="143.6"/>
		<line class="st3" x1="268.8" y1="141" x2="268.8" y2="144.5"/>
		<line class="st3" x1="274.2" y1="140.2" x2="274.2" y2="145.2"/>
		<line class="st3" x1="279.5" y1="142.5" x2="279.5" y2="145.6"/>
		<line class="st3" x1="284.8" y1="141.1" x2="284.8" y2="145.8"/>
		<line class="st3" x1="290" y1="142.8" x2="290" y2="145.6"/>
		<line class="st3" x1="295.3" y1="140.8" x2="295.3" y2="145.8"/>
		<line class="st3" x1="300.7" y1="142" x2="300.7" y2="146.2"/>
		<line class="st3" x1="306" y1="141.1" x2="306" y2="146.6"/>
		<line class="st3" x1="311.3" y1="138.2" x2="311.3" y2="147.1"/>
		<line class="st3" x1="316.5" y1="137.9" x2="316.5" y2="148"/>
		<line class="st3" x1="330.3" y1="165.4" x2="330.3" y2="175"/>
		<path class="st3" d="M322.5,125.2v18.6c0,0-0.9,2.9-5.3,4.3"/>
		<path class="st3" d="M336.2,174.6v9.3c0-14.3-35.5-15.1-48.4-15.1c-26.4,0-47.8-7.1-47.8-15.9v-9.6"/>
	</g>
</g>
</symbol><symbol id="test--mobile" viewBox="0 0 189.9 117.4">
<style type="text/css">
	.st0{opacity:5.000000e-02;}
	.st1{fill:#59C5FB;}
	.st2{opacity:8.000000e-02;}
	.st3{opacity:0.1;}
	.st4{fill:#37414B;}
	.st5{fill:#82D2F5;}
	.st6{fill:#FFFFFF;}
	.st7{fill:none;stroke:#37414B;stroke-linecap:round;stroke-linejoin:round;stroke-miterlimit:10;}
	.st8{fill:#37414C;}
	.st9{fill:#E0E3E5;}
	.st10{fill:none;}
</style>
<g id="Layer_2">
	<g>
		<g class="st0">
			<circle class="st1" cx="107.7" cy="58.7" r="58.7"/>
		</g>
		<g class="st2">
			<circle class="st1" cx="111.8" cy="57.3" r="51.3"/>
		</g>
		<g class="st3">
			<circle class="st1" cx="106.5" cy="58" r="40.7"/>
		</g>
	</g>
	<g>
		<g>
			
				<ellipse transform="matrix(0.9999 -1.272724e-02 1.272724e-02 0.9999 -0.3217 4.404724e-02)" class="st4" cx="3.3" cy="25.3" rx="0.7" ry="0.7"/>
		</g>
		<g>
			
				<ellipse transform="matrix(0.9999 -1.272724e-02 1.272724e-02 0.9999 -0.3561 4.427567e-02)" class="st4" cx="3.3" cy="28" rx="0.7" ry="0.7"/>
		</g>
		<g>
			<ellipse transform="matrix(0.6981 -0.716 0.716 0.6981 -20.9303 11.6043)" class="st4" cx="3.3" cy="30.6" rx="0.7" ry="0.7"/>
		</g>
		<g>
			
				<ellipse transform="matrix(0.9999 -1.272724e-02 1.272724e-02 0.9999 -0.3563 1.117678e-02)" class="st4" cx="0.7" cy="28" rx="0.7" ry="0.7"/>
		</g>
		<g>
			
				<ellipse transform="matrix(0.9999 -1.272724e-02 1.272724e-02 0.9999 -0.3559 7.736827e-02)" class="st4" cx="5.9" cy="28" rx="0.7" ry="0.7"/>
		</g>
	</g>
	<g>
		<g>
			<ellipse transform="matrix(0.9446 -0.3283 0.3283 0.9446 7.7251 51.1293)" class="st4" cx="155.3" cy="2.7" rx="0.6" ry="0.6"/>
		</g>
		<g>
			<ellipse transform="matrix(0.9446 -0.3283 0.3283 0.9446 7.3714 50.4806)" class="st4" cx="153.2" cy="3.4" rx="0.6" ry="0.6"/>
		</g>
		<g>
			<ellipse transform="matrix(0.4358 -0.9001 0.9001 0.4358 81.595 138.4715)" class="st4" cx="151.2" cy="4.2" rx="0.6" ry="0.6"/>
		</g>
		<g>
			<ellipse transform="matrix(0.9446 -0.3283 0.3283 0.9446 7.9576 50.1505)" class="st4" cx="152.5" cy="1.5" rx="0.6" ry="0.6"/>
		</g>
		<g>
			<ellipse transform="matrix(0.9446 -0.3283 0.3283 0.9446 6.7575 50.8222)" class="st4" cx="153.9" cy="5.4" rx="0.6" ry="0.6"/>
		</g>
	</g>
	<g>
		<g>
			
				<ellipse transform="matrix(0.9446 -0.3283 0.3283 0.9446 -28.8758 51.7826)" class="st4" cx="138.9" cy="111.4" rx="0.9" ry="0.9"/>
		</g>
		<g>
			
				<ellipse transform="matrix(0.9446 -0.3283 0.3283 0.9446 -29.3236 50.9012)" class="st4" cx="136.1" cy="112.3" rx="0.9" ry="0.9"/>
		</g>
		<g>
			
				<ellipse transform="matrix(0.4358 -0.9001 0.9001 0.4358 -26.8585 183.8185)" class="st4" cx="133.2" cy="113.3" rx="0.9" ry="0.9"/>
		</g>
		<g>
			
				<ellipse transform="matrix(0.9446 -0.3283 0.3283 0.9446 -28.4933 50.4283)" class="st4" cx="135.1" cy="109.6" rx="0.9" ry="0.9"/>
		</g>
		<g>
			<ellipse transform="matrix(0.9446 -0.3283 0.3283 0.9446 -30.197 51.3546)" class="st4" cx="137" cy="115.1" rx="0.9" ry="0.9"/>
		</g>
	</g>
	<g>
		<g>
			<path class="st4" d="M189.4,73.1h-1.3c-0.3,0-0.5-0.2-0.5-0.5v-4.8c0-0.3,0.2-0.5,0.5-0.5h1.3c0.3,0,0.5,0.2,0.5,0.5v4.8
				C189.9,72.9,189.7,73.1,189.4,73.1z M188.6,72.1h0.3v-3.8h-0.3V72.1z"/>
		</g>
		<g>
			<g>
				<g>
					<path class="st5" d="M185.2,84.5h-6c-0.7,0-1.2-0.6-1.2-1.2v-27c0-0.7,0.6-1.2,1.2-1.2h6c0.7,0,1.2,0.6,1.2,1.2v27
						C186.5,84,185.9,84.5,185.2,84.5z"/>
				</g>
				<g>
					<path class="st4" d="M186.5,81.3c-0.3,0-0.5-0.2-0.5-0.5V61.5c0-0.3,0.2-0.5,0.5-0.5s0.5,0.2,0.5,0.5v19.3
						C187,81,186.8,81.3,186.5,81.3z"/>
				</g>
				<g>
					<path class="st4" d="M186.5,59.3c-0.3,0-0.5-0.2-0.5-0.5v-2.5c0-0.4-0.3-0.7-0.7-0.7c-0.3,0-0.5-0.2-0.5-0.5s0.2-0.5,0.5-0.5
						c1,0,1.7,0.8,1.7,1.7v2.5C187,59.1,186.8,59.3,186.5,59.3z"/>
				</g>
				<g>
					<path class="st4" d="M178,78.9c-0.3,0-0.5-0.2-0.5-0.5V56.3c0-1,0.8-1.7,1.7-1.7h4.4c0.3,0,0.5,0.2,0.5,0.5s-0.2,0.5-0.5,0.5
						h-4.4c-0.4,0-0.7,0.3-0.7,0.7v22.1C178.5,78.6,178.3,78.9,178,78.9z"/>
				</g>
			</g>
			<g>
				<path class="st4" d="M185.2,85h-6c-1,0-1.7-0.8-1.7-1.7v-3.1c0-0.3,0.2-0.5,0.5-0.5s0.5,0.2,0.5,0.5v3.1c0,0.4,0.3,0.7,0.7,0.7
					h6c0.4,0,0.7-0.3,0.7-0.7v-1.1c0-0.3,0.2-0.5,0.5-0.5s0.5,0.2,0.5,0.5v1.1C187,84.3,186.2,85,185.2,85z"/>
			</g>
		</g>
		<g>
			<g>
				<path class="st6" d="M186,76.5h-7.4c-1.4,0-2.5-1.1-2.5-2.5v-8.5c0-1.4,1.1-2.5,2.5-2.5h7.4c1.4,0,2.5,1.1,2.5,2.5V74
					C188.4,75.4,187.3,76.5,186,76.5z"/>
			</g>
			<g>
				<path class="st4" d="M184.3,77h-5.8c-1.6,0-3-1.3-3-3v-8.5c0-1.6,1.3-3,3-3h1.3c0.3,0,0.5,0.2,0.5,0.5s-0.2,0.5-0.5,0.5h-1.3
					c-1.1,0-2,0.9-2,2V74c0,1.1,0.9,2,2,2h5.8c0.3,0,0.5,0.2,0.5,0.5S184.6,77,184.3,77z"/>
			</g>
			<g>
				<path class="st4" d="M186,77c-0.3,0-0.5-0.2-0.5-0.5s0.2-0.5,0.5-0.5c1.1,0,2-0.9,2-2v-8.5c0-1.1-0.9-2-2-2h-3.7
					c-0.3,0-0.5-0.2-0.5-0.5s0.2-0.5,0.5-0.5h3.7c1.6,0,3,1.3,3,3V74C188.9,75.7,187.6,77,186,77z"/>
			</g>
		</g>
		<g transform="translate(0,-952.36218)">
			<g>
				<path class="st4" d="M182.2,1026.9L182.2,1026.9c-0.1,0-0.3-0.1-0.4-0.2l-3.6-3.8c-1-1-1-2.8,0-3.8s2.7-1,3.7,0l0.3,0.3l0.3-0.3
					c1-1,2.7-1,3.7,0s1,2.7,0,3.8l-3.6,3.8C182.5,1026.8,182.4,1026.9,182.2,1026.9z M180.1,1019.3c-0.4,0-0.8,0.2-1.1,0.5
					c-0.6,0.7-0.6,1.7,0,2.4l3.3,3.4l3.3-3.4c0.6-0.7,0.6-1.8,0-2.4c-0.6-0.6-1.6-0.6-2.2,0l-0.7,0.7c-0.1,0.1-0.2,0.2-0.4,0.2l0,0
					c-0.1,0-0.3-0.1-0.4-0.2l-0.7-0.7C180.9,1019.5,180.5,1019.3,180.1,1019.3z"/>
			</g>
		</g>
		<g>
			<path class="st4" d="M183.3,71.8c-0.2,0-0.4-0.1-0.5-0.3l-0.6-1.3l-0.1,0.4c-0.1,0.2-0.3,0.3-0.5,0.3h-1.3
				c-0.3,0-0.5-0.2-0.5-0.5s0.2-0.5,0.5-0.5h0.9l0.5-1.2c0.1-0.2,0.3-0.3,0.5-0.3s0.4,0.1,0.5,0.3l0.3,0.8l0.3-1.8
				c0-0.2,0.2-0.4,0.5-0.4c0.2,0,0.5,0.2,0.5,0.4l0.5,2.4h2.5c0.3,0,0.5,0.2,0.5,0.5s-0.2,0.5-0.5,0.5h-2.9c-0.2,0-0.4-0.2-0.5-0.4
				v-0.2l-0.1,0.9C183.7,71.6,183.6,71.8,183.3,71.8L183.3,71.8z"/>
		</g>
	</g>
	<g>
		<g>
			<path class="st5" d="M87.8,39.2c3.2,1.3,8.7-6.9,5.5-11.6c-3.1-4.7-8.1-1.5-8.1-1.5s-5.8-1.2-6.9,4.4
				C77.2,36,85.3,41.5,87.8,39.2z"/>
		</g>
		<g>
			<path class="st4" d="M86.2,40.2c-0.4,0-0.8-0.1-1.2-0.2c-0.3-0.1-0.4-0.3-0.4-0.6c0.1-0.3,0.3-0.4,0.6-0.4
				c0.6,0.1,1.6,0.3,2.2-0.3c0.1-0.1,0.4-0.2,0.5-0.1c0.8,0.3,2-0.2,3.2-1.5c0.3-0.3,0.6-0.7,0.8-1c0.4-0.7,0.8-1.4,1.1-2.1
				c0.1-0.3,0.2-0.5,0.3-0.8c0.6-2.1,0.5-4-0.4-5.5c-2.8-4.2-7.2-1.5-7.4-1.3c-0.1,0.1-0.2,0.1-0.4,0.1c-0.2,0-4.4-0.8-6,2.7
				c-0.1,0.3-0.4,0.4-0.7,0.3c-0.3-0.1-0.4-0.4-0.3-0.7c1.7-3.8,5.9-3.4,6.9-3.3c0.9-0.5,5.6-2.8,8.6,1.7c1.1,1.7,1.3,3.9,0.6,6.3
				c-0.1,0.3-0.2,0.6-0.3,0.9c-0.3,0.8-0.7,1.6-1.2,2.3c-0.3,0.4-0.6,0.8-0.9,1.2c-1.4,1.5-2.8,2.1-4,1.8
				C87.4,40.1,86.9,40.2,86.2,40.2z"/>
		</g>
		<g>
			<path class="st4" d="M82.7,39c-0.1,0-0.2,0-0.3-0.1c-2.8-1.8-5.3-5.1-4.6-8.6c0.1-0.3,0.3-0.4,0.6-0.4c0.3,0.1,0.4,0.3,0.4,0.6
				c-0.6,2.9,1.7,6,4.2,7.5c0.2,0.1,0.3,0.5,0.2,0.7C83,38.9,82.9,39,82.7,39z"/>
		</g>
		<g>
			<path class="st6" d="M81.1,35.1c-0.2,0-0.3-0.1-0.4-0.2c-0.7-1-1.5-2.6-1.2-4.3c0.1-0.3,0.3-0.4,0.6-0.4c0.3,0.1,0.4,0.3,0.4,0.6
				c-0.3,1.3,0.4,2.6,1,3.5c0.2,0.2,0.1,0.5-0.1,0.7C81.3,35.1,81.2,35.1,81.1,35.1z"/>
		</g>
		<g>
			<path class="st6" d="M84.5,38c-0.1,0-0.1,0-0.2,0c-0.9-0.4-1.9-1.1-2.6-1.9c-0.2-0.2-0.2-0.5,0-0.7s0.5-0.2,0.7,0
				c0.7,0.7,1.5,1.3,2.4,1.7c0.2,0.1,0.4,0.4,0.2,0.7C84.9,37.9,84.7,38,84.5,38z"/>
		</g>
		<g>
			<path class="st7" d="M86.4,38"/>
		</g>
		<g>
			<path class="st7" d="M87.4,37.1"/>
		</g>
		<g>
			<path class="st6" d="M91.9,34.3c-0.1,0-0.1,0-0.2,0c-0.3-0.1-0.4-0.4-0.3-0.7c0.4-0.9,1.1-3.2,0.1-4.8c-0.2-0.2-0.1-0.5,0.1-0.7
				c0.2-0.2,0.5-0.1,0.7,0.1c1.3,2,0.5,4.7,0,5.7C92.2,34.2,92.1,34.3,91.9,34.3z"/>
		</g>
		<g>
			<g>
				<path class="st6" d="M80.2,24.2c-1.2,0.1-2.3,0.5-2.3,0.5s2.1,6.6,6.9,2.9c0,0,0.3-3.2-3.2-3.4c-0.1,0-0.3,0-0.4,0"/>
				<path class="st4" d="M82,29.2c-0.3,0-0.7-0.1-1-0.2c-2.4-0.8-3.5-4.1-3.6-4.2c0-0.1,0-0.3,0-0.4c0.1-0.1,0.2-0.2,0.3-0.2
					c0,0,1.1-0.3,2.3-0.5c0.3,0,0.5,0.2,0.6,0.4c0,0.3-0.2,0.5-0.4,0.6c-0.6,0.1-1.2,0.2-1.7,0.3c0.4,0.9,1.3,2.6,2.7,3.1
					c0.9,0.3,1.9,0,3-0.8c0-0.4-0.1-1.2-0.6-1.8c-0.5-0.5-1.2-0.8-2.1-0.9c-0.1,0-0.3,0-0.4,0c-0.3,0-0.5-0.2-0.5-0.5
					s0.2-0.5,0.5-0.5c0.1,0,0.3,0,0.4,0c1.2,0.1,2.1,0.5,2.8,1.2c1,1.1,0.9,2.7,0.9,2.7c0,0.1-0.1,0.3-0.2,0.3
					C84,28.8,83,29.2,82,29.2z"/>
			</g>
			<g>
				<path class="st6" d="M84.8,27.6c0,0-1.7-2.4-4.7-2.1"/>
				<path class="st4" d="M84.8,28.1c-0.2,0-0.3-0.1-0.4-0.2s-1.6-2.1-4.3-1.9c-0.3,0-0.5-0.2-0.5-0.4c0-0.3,0.2-0.5,0.4-0.5
					c3.3-0.3,5.1,2.2,5.2,2.3c0.2,0.2,0.1,0.5-0.1,0.7C85,28,84.9,28.1,84.8,28.1z"/>
			</g>
		</g>
		<g>
			<path class="st6" d="M85.3,27.8L85.3,27.8c0.3-0.1,0.4-0.4,0.3-0.6c0-0.1-0.6-1.6,0.8-2.7c0.2-0.1,0.2-0.4,0.1-0.6
				c-0.1-0.2-0.4-0.2-0.6-0.1c-1.5,1.2-1.4,2.9-1,3.7C84.9,27.8,85.1,27.9,85.3,27.8z"/>
			<path class="st4" d="M85.2,28.4c-0.4,0-0.7-0.2-0.9-0.6c-0.4-0.9-0.6-2.9,1.2-4.3c0.2-0.2,0.4-0.2,0.7-0.2c0.2,0,0.5,0.1,0.6,0.3
				C87,23.8,87,24,87,24.3c0,0.2-0.1,0.5-0.3,0.6C85.6,25.8,86,27,86.1,27c0.2,0.5,0,1-0.5,1.2c0,0-0.1,0-0.2,0l0,0
				C85.3,28.3,85.2,28.4,85.2,28.4z M85.3,27.8L85.3,27.8L85.3,27.8z M85.1,27.5L85.1,27.5L85.1,27.5z M86,24.2L86,24.2L86,24.2
				L86,24.2z"/>
		</g>
	</g>
	<g>
		<g>
			<path class="st8" d="M87.9,89.6H59c-0.3,0-0.5-0.2-0.5-0.5s0.2-0.5,0.5-0.5h28.9c0.3,0,0.5,0.2,0.5,0.5S88.2,89.6,87.9,89.6z"/>
		</g>
		<g>
			<path class="st9" d="M133,32.6h4.5h6.3c3.4,0,6.1,2.7,6.1,5.9v44.6c0,3.3-2.7,5.9-6.1,5.9H95.1c-3.4,0-6.1-2.7-6.1-5.9V38.5
				c0-3.3,2.7-5.9,6.1-5.9H133z"/>
		</g>
		<g>
			<path class="st6" d="M94.2,45.1v-5.7c0-0.9,0.8-1.6,1.7-1.6h46.9c1,0,1.7,0.7,1.7,1.6v42.9c0,0.9-0.8,1.6-1.7,1.6H95.9
				c-1,0-1.7-0.7-1.7-1.6v-25"/>
			<path class="st4" d="M142.8,84.4H95.9c-1.2,0-2.2-0.9-2.2-2.1v-25c0-0.3,0.2-0.5,0.5-0.5s0.5,0.2,0.5,0.5v25
				c0,0.6,0.5,1.1,1.2,1.1h46.9c0.7,0,1.2-0.5,1.2-1.1V39.4c0-0.6-0.5-1.1-1.2-1.1H95.9c-0.7,0-1.2,0.5-1.2,1.1v5.7
				c0,0.3-0.2,0.5-0.5,0.5s-0.5-0.3-0.5-0.5v-5.7c0-1.1,1-2.1,2.2-2.1h46.9c1.2,0,2.2,0.9,2.2,2.1v42.9
				C145.1,83.4,144.1,84.4,142.8,84.4z"/>
		</g>
		<g>
			<g>
				<path class="st4" d="M116.1,51.2H99.3c-0.3,0-0.5-0.2-0.5-0.5s0.2-0.5,0.5-0.5h16.8c0.3,0,0.5,0.2,0.5,0.5
					S116.3,51.2,116.1,51.2z"/>
			</g>
			<g>
				<path class="st4" d="M116.1,57.1H99.3c-0.3,0-0.5-0.2-0.5-0.5s0.2-0.5,0.5-0.5h16.8c0.3,0,0.5,0.2,0.5,0.5
					S116.3,57.1,116.1,57.1z"/>
			</g>
			<g>
				<path class="st4" d="M116.1,63.1H99.3c-0.3,0-0.5-0.2-0.5-0.5s0.2-0.5,0.5-0.5h16.8c0.3,0,0.5,0.2,0.5,0.5
					S116.3,63.1,116.1,63.1z"/>
			</g>
			<g>
				<path class="st4" d="M138.9,51.2h-16.8c-0.3,0-0.5-0.2-0.5-0.5s0.2-0.5,0.5-0.5h16.8c0.3,0,0.5,0.2,0.5,0.5
					S139.2,51.2,138.9,51.2z"/>
			</g>
			<g>
				<path class="st4" d="M138.9,57.1h-16.8c-0.3,0-0.5-0.2-0.5-0.5s0.2-0.5,0.5-0.5h16.8c0.3,0,0.5,0.2,0.5,0.5
					S139.2,57.1,138.9,57.1z"/>
			</g>
			<g>
				<path class="st4" d="M138.9,63.1h-16.8c-0.3,0-0.5-0.2-0.5-0.5s0.2-0.5,0.5-0.5h16.8c0.3,0,0.5,0.2,0.5,0.5
					S139.2,63.1,138.9,63.1z"/>
			</g>
		</g>
		<g>
			<path class="st4" d="M88.9,41.1c-0.3,0-0.5-0.2-0.5-0.5v-2c0-3.6,3-6.4,6.6-6.4h4.3c0.3,0,0.5,0.2,0.5,0.5s-0.2,0.5-0.5,0.5H95
				c-3.1,0-5.6,2.4-5.6,5.4v2C89.4,40.8,89.2,41.1,88.9,41.1z"/>
		</g>
		<g>
			<path class="st4" d="M143.8,89.6H95.1c-3.6,0-6.6-2.9-6.6-6.4V47.3c0-0.3,0.2-0.5,0.5-0.5s0.5,0.2,0.5,0.5v35.9
				c0,3,2.5,5.4,5.6,5.4h48.7c3.1,0,5.6-2.4,5.6-5.4v-9.5c0-0.3,0.2-0.5,0.5-0.5s0.5,0.2,0.5,0.5v9.5
				C150.4,86.7,147.4,89.6,143.8,89.6z"/>
		</g>
		<g>
			<path class="st4" d="M149.9,58.5c-0.3,0-0.5-0.2-0.5-0.5V38.5c0-3-2.5-5.4-5.6-5.4h-4.5c-0.3,0-0.5-0.2-0.5-0.5s0.2-0.5,0.5-0.5
				h4.5c3.6,0,6.6,2.9,6.6,6.4V58C150.4,58.3,150.1,58.5,149.9,58.5z"/>
		</g>
		<g>
			<path class="st6" d="M134.6,33c0.1,0.6,0.1,1,0.1,1.7c0,3.8-1.5,7.3-3.9,10H108c-2.4-2.6-3.9-6.1-3.9-10
				c0-8.2,6.8-14.9,15.3-14.9c6,0,11.1,3.3,13.6,8.2C133.9,29.5,134.6,33,134.6,33z"/>
		</g>
		<g>
			<path class="st5" d="M130.6,33.5c0,0.4,0.1,0.7,0.1,1c0,2.2-0.7,4.4-2,6.2h-18.5c-1.3-1.8-2-4-2-6.2c0-6,5-10.9,11.2-10.9
				c4.3,0,8.1,2.3,10,6"/>
			<path class="st4" d="M128.6,41.2h-18.5c-0.2,0-0.3-0.1-0.4-0.2c-1.4-1.9-2.1-4.2-2.1-6.5c0-6.3,5.3-11.4,11.7-11.4
				c4.5,0,8.5,2.4,10.5,6.3c0.1,0.2,0,0.5-0.2,0.7c-0.2,0.1-0.5,0-0.7-0.2c-1.8-3.5-5.5-5.7-9.6-5.7c-5.9,0-10.7,4.7-10.7,10.4
				c0,2,0.6,4,1.8,5.7h18c1.2-1.7,1.8-3.7,1.8-5.7c0-0.3,0-0.6-0.1-1c0-0.3,0.2-0.5,0.4-0.6c0.3,0,0.5,0.2,0.6,0.4
				c0.1,0.4,0.1,0.7,0.1,1.1c0,2.3-0.7,4.6-2.1,6.5C128.9,41.1,128.8,41.2,128.6,41.2z"/>
		</g>
		<g>
			<path class="st4" d="M117,34.6h-5c-0.3,0-0.5-0.2-0.5-0.5s0.2-0.5,0.5-0.5h5c0.3,0,0.5,0.2,0.5,0.5S117.3,34.6,117,34.6z"/>
		</g>
		<g>
			<path class="st6" d="M119.4,31.9c-1.2,0-2.2,1-2.2,2.2s1,2.2,2.2,2.2s2.2-1,2.2-2.2S120.6,31.9,119.4,31.9z"/>
			<path class="st4" d="M119.4,36.8c-1.5,0-2.7-1.2-2.7-2.7s1.2-2.7,2.7-2.7s2.7,1.2,2.7,2.7S120.9,36.8,119.4,36.8z M119.4,32.4
				c-0.9,0-1.7,0.7-1.7,1.7s0.8,1.7,1.7,1.7s1.7-0.7,1.7-1.7S120.3,32.4,119.4,32.4z"/>
		</g>
		<g>
			<path class="st4" d="M130.8,45.1H108c-0.1,0-0.3-0.1-0.4-0.2c-2.6-2.8-4-6.5-4-10.3c0-2.6,0.7-5.1,1.9-7.4
				c0.1-0.2,0.4-0.3,0.7-0.2s0.3,0.4,0.2,0.7c-1.2,2.1-1.8,4.5-1.8,6.9c0,3.5,1.3,6.8,3.6,9.5h22.3c2.3-2.6,3.6-6,3.6-9.5
				c0-0.6,0-1-0.1-1.6c0-0.3,0.2-0.5,0.4-0.6c0.3,0,0.5,0.2,0.6,0.4c0.1,0.6,0.1,1.1,0.1,1.7c0,3.8-1.4,7.4-4,10.3
				C131,45,130.9,45.1,130.8,45.1z"/>
		</g>
		<g>
			<path class="st4" d="M133,28.4c-0.2,0-0.4-0.1-0.4-0.3c-2.5-4.9-7.6-7.9-13.2-7.9c-1.8,0-3.6,0.3-5.3,1c-0.3,0.1-0.5,0-0.6-0.3
				s0-0.5,0.3-0.6c1.8-0.7,3.7-1,5.7-1c6,0,11.4,3.2,14.1,8.4c0.1,0.2,0,0.5-0.2,0.7C133.2,28.4,133.1,28.4,133,28.4z"/>
		</g>
		<g>
			<path class="st8" d="M178.1,89.6h-36.9c-0.3,0-0.5-0.2-0.5-0.5s0.2-0.5,0.5-0.5h36.9c0.3,0,0.5,0.2,0.5,0.5
				S178.4,89.6,178.1,89.6z"/>
		</g>
	</g>
	<g>
		<g>
			<g>
				<path class="st9" d="M73.1,50.1l-3,4.9c-0.4,0.6-0.2,1.5,0.4,1.8l2.8,1.8l1.1,0.7v0.1c-0.2,1-0.6,1.9-1.4,2.6l-1,1
					c-1.1,1.1-2.2,2.4-3.1,3.8c0,0,0,0-0.1,0.1l-0.2,0.3c-0.9,1.5-1.7,3.1-2.2,4.7l-0.5,1.4c-0.3,1-0.9,1.8-1.7,2.4l-0.1,0.1
					L63,75.1l-2.8-1.8c-0.6-0.4-1.5-0.2-1.8,0.4l-0.1,0.2l-1,1.4l-2,3.3c-0.4,0.6-0.2,1.5,0.4,1.8l2.8,1.8l6.4,4l0.3,0.2l1.4,0.9
					l2.8,1.8c0.6,0.4,1.5,0.2,1.8-0.4l3-4.9c0.4-0.6,0.2-1.5-0.4-1.8L71,80.2l-1.1-0.7v-0.1c0.2-1,0.6-1.9,1.4-2.6l1-1
					c1.3-1.2,2.4-2.6,3.3-4.1l0.2-0.3v-0.1c0.8-1.4,1.5-2.9,2-4.4l0.5-1.4c0.3-1,0.9-1.8,1.7-2.4l0.1-0.1l1.1,0.7l2.8,1.8
					c0.6,0.4,1.4,0.2,1.8-0.3l0,0v-0.1l0.9-1.4l2.2-3.5c0.4-0.6,0.2-1.5-0.4-1.8l-2.8-1.8l-3.4-2.1l-1.4-0.9l-3.3-2l-2.8-1.8
					C74.3,49.3,73.5,49.5,73.1,50.1z"/>
			</g>
			<g>
				<path class="st4" d="M70,79.9c-0.1,0-0.2,0-0.3-0.1l-6-3.7c-0.2-0.1-0.3-0.5-0.2-0.7c0.1-0.2,0.5-0.3,0.7-0.2l6,3.7
					c0.2,0.1,0.3,0.5,0.2,0.7C70.3,79.8,70.2,79.9,70,79.9z"/>
			</g>
			<g>
				<path class="st4" d="M80.9,63.9c-0.1,0-0.2,0-0.3-0.1L74,59.7c-0.2-0.1-0.3-0.5-0.2-0.7c0.1-0.2,0.5-0.3,0.7-0.2l6.6,4.1
					c0.2,0.1,0.3,0.5,0.2,0.7C81.3,63.8,81.1,63.9,80.9,63.9z"/>
			</g>
			<g>
				<path class="st8" d="M58,82.4c-0.1,0-0.2,0-0.3-0.1c-0.2-0.1-0.3-0.5-0.2-0.7l4.3-6.9c0.1-0.2,0.5-0.3,0.7-0.2s0.3,0.5,0.2,0.7
					l-4.3,6.9C58.4,82.3,58.2,82.4,58,82.4z"/>
			</g>
			<g>
				<path class="st6" d="M61,80.8c-0.1,0-0.2,0-0.3-0.1c-0.2-0.1-0.3-0.5-0.2-0.7l2-3.3c0.1-0.2,0.5-0.3,0.7-0.2s0.3,0.5,0.2,0.7
					l-2,3.3C61.3,80.7,61.2,80.8,61,80.8z"/>
			</g>
			<g>
				<path class="st6" d="M80.9,62.4c-0.1,0-0.2,0-0.3-0.1c-0.2-0.1-0.3-0.5-0.2-0.7l2-3.3c0.1-0.2,0.5-0.3,0.7-0.2s0.3,0.5,0.2,0.7
					l-2,3.3C81.3,62.3,81.1,62.4,80.9,62.4z"/>
			</g>
			<g>
				<path class="st6" d="M83.8,57.8c-0.1,0-0.2,0-0.3-0.1c-0.2-0.1-0.3-0.5-0.2-0.7l0.8-1.3c0.1-0.2,0.5-0.3,0.7-0.2
					s0.3,0.5,0.2,0.7l-0.8,1.3C84.2,57.7,84,57.8,83.8,57.8z"/>
			</g>
			<g>
				<path class="st8" d="M72.9,58.7c-0.1,0-0.2,0-0.3-0.1c-0.2-0.1-0.3-0.5-0.2-0.7l4.3-6.9c0.1-0.2,0.5-0.3,0.7-0.2
					s0.3,0.5,0.2,0.7l-4.3,6.9C73.2,58.6,73,58.7,72.9,58.7z"/>
			</g>
			<g>
				<path class="st8" d="M66.9,87.9c-0.1,0-0.2,0-0.3-0.1c-0.2-0.1-0.3-0.5-0.2-0.7l4.3-6.9c0.1-0.2,0.5-0.3,0.7-0.2
					s0.3,0.5,0.2,0.7l-4.3,6.9C67.3,87.8,67.1,87.9,66.9,87.9z"/>
			</g>
			<g>
				<path class="st8" d="M81.8,64.2c-0.1,0-0.2,0-0.3-0.1c-0.2-0.1-0.3-0.5-0.2-0.7l4.3-6.9c0.1-0.2,0.5-0.3,0.7-0.2
					c0.2,0.1,0.3,0.5,0.2,0.7l-4.3,6.9C82.1,64.2,81.9,64.2,81.8,64.2z"/>
			</g>
			<g>
				<path class="st4" d="M70.1,89.7c-0.3,0-0.7-0.1-1-0.3l-3.3-2c-0.2-0.1-0.3-0.5-0.2-0.7c0.1-0.2,0.5-0.3,0.7-0.2l3.3,2
					c0.2,0.1,0.4,0.2,0.6,0.1c0.2-0.1,0.4-0.2,0.5-0.4l3-4.9c0.2-0.4,0.1-0.9-0.3-1.2l-3.9-2.4c-0.2-0.1-0.3-0.3-0.2-0.5v-0.1
					c0.2-1.1,0.7-2.1,1.5-2.9l1-1c1.2-1.2,2.3-2.5,3.2-4l0.2-0.3c0.9-1.4,1.5-2.9,2-4.4l0.5-1.4c0.3-1.1,1-2,1.9-2.6l0.1-0.1
					c0.2-0.1,0.4-0.1,0.6,0l3.9,2.4c0.4,0.2,0.8,0.1,1.1-0.2c0,0,0,0,0.1-0.1c0.2-0.2,0.4-0.3,0.7-0.1c0.2,0.1,0.3,0.4,0.2,0.7
					c0,0-0.1,0.2-0.2,0.2c-0.5,0.7-1.6,0.9-2.4,0.4l-3.6-2.3c-0.7,0.5-1.1,1.2-1.4,2l-0.5,1.4c-0.5,1.6-1.2,3.1-2.1,4.5
					c0,0,0,0.1-0.1,0.1l-0.2,0.3c-0.9,1.5-2.1,2.9-3.4,4.2l-1,1c-0.6,0.6-1,1.3-1.2,2.1l3.6,2.3c0.9,0.5,1.1,1.7,0.6,2.5l-3,4.9
					c-0.3,0.4-0.7,0.7-1.1,0.8C70.4,89.7,70.3,89.7,70.1,89.7z M64.9,86.7c-0.1,0-0.2,0-0.3-0.1l-9.2-5.8c-0.4-0.3-0.7-0.7-0.8-1.1
					c-0.1-0.5,0-1,0.2-1.4c0.1-0.2,0.5-0.3,0.7-0.2c0.2,0.1,0.3,0.5,0.2,0.7c-0.1,0.2-0.2,0.4-0.1,0.6c0,0.2,0.2,0.4,0.4,0.5
					l9.2,5.8c0.2,0.1,0.3,0.5,0.2,0.7C65.2,86.6,65.1,86.7,64.9,86.7z M64.1,76.2c-0.1,0-0.2,0-0.3-0.1l-3.9-2.4
					c-0.2-0.1-0.4-0.2-0.6-0.1c-0.2,0-0.4,0.2-0.5,0.4l-1,1.6c-0.1,0.2-0.5,0.3-0.7,0.2s-0.3-0.5-0.2-0.7l1-1.6
					c0.5-0.9,1.7-1.1,2.5-0.6l3.6,2.3c0.7-0.5,1.1-1.2,1.4-2l0.5-1.4c0.6-1.7,1.3-3.3,2.3-4.9l0.2-0.3c0,0,0-0.1,0.1-0.1
					c0.9-1.4,2-2.7,3.1-3.8l1-1c0.6-0.6,1-1.3,1.2-2.1l-3.6-2.3c-0.9-0.5-1.1-1.7-0.6-2.5l3-4.9c0.5-0.9,1.7-1.1,2.5-0.6l4,2.5
					c0.2,0.1,0.3,0.5,0.2,0.7c-0.1,0.2-0.5,0.3-0.7,0.2l-4-2.5c-0.4-0.2-0.9-0.1-1.2,0.3l-3,4.9c-0.2,0.4-0.1,0.9,0.3,1.2l3.9,2.4
					c0.2,0.1,0.3,0.3,0.2,0.5v0.1c-0.2,1.1-0.7,2.1-1.5,2.9l-1,1c-1.1,1.1-2.1,2.3-3,3.7c0,0,0,0.1-0.1,0.1L69,67.6
					c-0.9,1.4-1.6,3-2.2,4.6l-0.5,1.4c-0.4,1.1-1,2-1.9,2.6l-0.1,0.1C64.3,76.2,64.2,76.2,64.1,76.2z M87.3,63.4
					c-0.1,0-0.2,0-0.3-0.1c-0.2-0.1-0.3-0.5-0.2-0.7l1.8-2.8c0.1-0.2,0.2-0.4,0.1-0.6c0-0.2-0.2-0.4-0.4-0.5l-6.2-3.9
					c-0.2-0.1-0.3-0.5-0.2-0.7c0.1-0.2,0.5-0.3,0.7-0.2l6.2,3.9c0.4,0.3,0.7,0.7,0.8,1.1c0.1,0.5,0,1-0.2,1.4l-1.8,2.8
					C87.6,63.3,87.5,63.4,87.3,63.4z"/>
			</g>
			<g>
				<path class="st6" d="M67.9,75c-0.1,0-0.1,0-0.2,0c-0.3-0.1-0.4-0.4-0.3-0.6l0.5-1.4c0.6-1.7,1.3-3.3,2.3-4.9l0.2-0.3
					c0,0,0.1-0.1,0.1-0.2c0.9-1.3,1.9-2.6,3.1-3.8l1-1c0.2-0.2,0.5-0.2,0.7,0s0.2,0.5,0,0.7l-1,1c-1.1,1.1-2.1,2.3-3,3.7l-0.2,0.3
					c-0.9,1.4-1.6,3-2.2,4.6l-0.5,1.4C68.3,74.8,68.1,75,67.9,75z"/>
			</g>
		</g>
	</g>
	<g>
		<g>
			<g>
				<path class="st9" d="M53.7,70H38.9c-0.4,0-0.6-0.3-0.6-0.6v-2.9c0-0.7,0.5-1.2,1.2-1.2h13.1c0.7,0,1.2,0.5,1.2,1.2L53.7,70
					L53.7,70z"/>
				<path class="st8" d="M53.7,70.5H38.9c-0.6,0-1.1-0.5-1.1-1.1v-2.9c0-0.9,0.8-1.7,1.7-1.7h13.1c0.9,0,1.7,0.8,1.7,1.7v3.6
					C54.2,70.3,54,70.5,53.7,70.5z M39.4,65.7c-0.4,0-0.7,0.3-0.7,0.7v2.9c0,0.1,0.1,0.1,0.1,0.1h14.4v-3.1c0-0.4-0.3-0.7-0.7-0.7
					L39.4,65.7L39.4,65.7z"/>
			</g>
			<g>
				<path class="st8" d="M40.6,70.5c-0.3,0-0.5-0.2-0.5-0.5v-3c0-0.3,0.2-0.5,0.5-0.5s0.5,0.2,0.5,0.5v3
					C41.1,70.3,40.9,70.5,40.6,70.5z"/>
			</g>
			<g>
				<path class="st8" d="M43.4,70.5c-0.3,0-0.5-0.2-0.5-0.5v-2.6c0-0.3,0.2-0.5,0.5-0.5s0.5,0.2,0.5,0.5V70
					C43.9,70.3,43.6,70.5,43.4,70.5z"/>
			</g>
			<g>
				<path class="st8" d="M46.1,70.5c-0.3,0-0.5-0.2-0.5-0.5v-2.1c0-0.3,0.2-0.5,0.5-0.5s0.5,0.2,0.5,0.5V70
					C46.6,70.3,46.4,70.5,46.1,70.5z"/>
			</g>
			<g>
				<line class="st10" x1="39.7" y1="71.5" x2="39.7" y2="70"/>
				<path class="st8" d="M39.7,72c-0.3,0-0.5-0.2-0.5-0.5V70c0-0.3,0.2-0.5,0.5-0.5s0.5,0.2,0.5,0.5v1.5C40.2,71.7,40,72,39.7,72z"/>
			</g>
			<g>
				<line class="st10" x1="52.3" y1="71.5" x2="52.3" y2="70"/>
				<path class="st8" d="M52.3,72c-0.3,0-0.5-0.2-0.5-0.5V70c0-0.3,0.2-0.5,0.5-0.5s0.5,0.2,0.5,0.5v1.5C52.8,71.7,52.5,72,52.3,72z
					"/>
			</g>
			<g>
				<path class="st6" d="M39.7,71.5L39.7,71.5c0,1.2-0.5,1.4-1.4,2.2l-0.6,0.6c-0.9,0.8-1.4,1.9-1.4,3.1v10.5c0,1.1,0.9,1.9,1.9,1.9
					H46"/>
				<path class="st8" d="M46,90.2h-7.8c-1.3,0-2.4-1.1-2.4-2.4V77.3c0-1.3,0.6-2.6,1.6-3.5l1-0.9c0.7-0.6,0.9-0.7,0.9-1.5
					c0-0.3,0.2-0.5,0.5-0.5s0.5,0.2,0.5,0.5c0,1.3-0.5,1.7-1.2,2.3l-1,0.8c-0.9,0.8-1.4,1.8-1.4,2.8v10.5c0,0.8,0.6,1.4,1.4,1.4h7.8
					c0.3,0,0.5,0.2,0.5,0.5S46.3,90.2,46,90.2z"/>
			</g>
			<g>
				<path class="st6" d="M52.3,71.5L52.3,71.5c0,1.2,0.5,1.4,1.4,2.2l0.6,0.6c0.9,0.8,1.4,1.9,1.4,3.1v10.5c0,1.1-0.9,1.9-1.9,1.9
					H46"/>
				<path class="st8" d="M53.8,90.2H46c-0.3,0-0.5-0.2-0.5-0.5s0.2-0.5,0.5-0.5h7.8c0.8,0,1.4-0.6,1.4-1.4V77.3c0-1-0.4-2-1.2-2.7
					l-1-0.8c-0.7-0.6-1.2-1-1.2-2.3c0-0.3,0.2-0.5,0.5-0.5s0.5,0.2,0.5,0.5c0,0.8,0.2,1,0.9,1.5l1,0.9c1,0.9,1.6,2.1,1.6,3.5v10.5
					C56.2,89.1,55.1,90.2,53.8,90.2z"/>
			</g>
			<g>
				<rect x="36.5" y="77.3" class="st9" width="18.8" height="7.2"/>
			</g>
			<g>
				<rect x="44" y="71.5" class="st6" width="8" height="9.4"/>
			</g>
			<g>
				<rect x="38.9" y="76" class="st5" width="14.2" height="9.9"/>
				<path class="st8" d="M53.1,86.4H38.9c-0.3,0-0.5-0.2-0.5-0.5V76c0-0.3,0.2-0.5,0.5-0.5h14.2c0.3,0,0.5,0.2,0.5,0.5v9.9
					C53.6,86.2,53.3,86.4,53.1,86.4z M39.4,85.4h13.2v-8.9H39.4V85.4z"/>
			</g>
			<g>
				<path class="st8" d="M38.9,77.9h-2.6c-0.3,0-0.5-0.2-0.5-0.5s0.2-0.5,0.5-0.5h2.6c0.3,0,0.5,0.2,0.5,0.5S39.2,77.9,38.9,77.9z"/>
			</g>
			<g>
				<path class="st8" d="M38.9,85h-2.6c-0.3,0-0.5-0.2-0.5-0.5S36,84,36.3,84h2.6c0.3,0,0.5,0.2,0.5,0.5S39.2,85,38.9,85z"/>
			</g>
			<g>
				<path class="st8" d="M55.7,77.9h-2.6c-0.3,0-0.5-0.2-0.5-0.5s0.2-0.5,0.5-0.5h2.6c0.3,0,0.5,0.2,0.5,0.5S56,77.9,55.7,77.9z"/>
			</g>
			<g>
				<path class="st8" d="M55.7,85h-2.6c-0.3,0-0.5-0.2-0.5-0.5s0.2-0.5,0.5-0.5h2.6c0.3,0,0.5,0.2,0.5,0.5S56,85,55.7,85z"/>
			</g>
		</g>
		<g>
			<path class="st6" d="M46.4,82.7h3.2c0.9,0,1.7-0.8,1.6-1.8c0-1-0.8-1.8-1.7-1.8h-3.2"/>
			<path class="st4" d="M46.4,83.2c-0.3,0-0.5-0.2-0.5-0.5s0.2-0.5,0.5-0.5h3.2c0.6,0,1.2-0.6,1.1-1.3c0-0.4-0.1-0.7-0.4-0.9
				c-0.2-0.2-0.5-0.4-0.8-0.4h-3.2l0,0c-0.3,0-0.5-0.2-0.5-0.5s0.2-0.5,0.5-0.5h3.2l0,0c0.6,0,1.1,0.2,1.5,0.7
				c0.4,0.4,0.6,1,0.6,1.6c0,1.3-1,2.3-2.1,2.3H46.4L46.4,83.2z"/>
		</g>
		<g>
			<path class="st6" d="M46.4,81.2c0-0.9,0-2,0-2h-3.2c-0.9,0-1.7,0.8-1.6,1.8c0,1,0.8,1.8,1.7,1.8h3.2"/>
			<path class="st4" d="M43.2,83.3c-0.6,0-1.1-0.2-1.5-0.7c-0.4-0.4-0.6-1-0.6-1.6c0-1.3,1-2.3,2.1-2.3h3.2c0.1,0,0.3,0.1,0.4,0.1
				s0.1,0.2,0.1,0.4c0,0,0,1.2,0,2c0,0.3-0.2,0.5-0.5,0.5l0,0c-0.3,0-0.5-0.2-0.5-0.5c0-0.5,0-1.1,0-1.5h-2.7
				c-0.6,0-1.2,0.6-1.1,1.3c0,0.4,0.1,0.7,0.4,0.9c0.2,0.2,0.5,0.3,0.8,0.4h3.2l0,0c0.3,0,0.5,0.2,0.5,0.5s-0.2,0.5-0.5,0.5H43.2
				L43.2,83.3z"/>
		</g>
	</g>
	<g>
		<g>
			<path class="st9" d="M173.6,75.3c0-3.4-8.2-6.1-18.7-6.1c-0.3,0-0.7,0-1,0c-13.8,0.2-24.6,3.9-24.6,8.6c0,0,1.8,4,7.3,5.5
				c10.9,3,28.3-2.8,34.1-5.3C170.7,77.9,173.6,75.3,173.6,75.3z"/>
		</g>
		<g>
			<path class="st6" d="M136.7,75.9c0,0.2,2.2,1.8,2.2,1.8l6.4,2.2l6.5,0.9h8.7l6.4-1.4l4.5-1.9l1.7-1.3v8.5l-2.3,2.4l3.4,0.9
				l5.1,3.1l0.9,2.3v10.8l-3.2-2.8l-5.4-2l-6.5-1.3l-9.6-0.2l-8.5-0.5l-6.9-1l-5.5-1.7l-3.7-2.7l-1.4-2l0.2-11l2,1.6l3.4,1.9
				l1.5,0.6v-7.2H136.7z"/>
		</g>
		<g>
			<path class="st4" d="M154.9,76.2c-1.7,0-10-0.1-10-2.1s8.3-2.1,10-2.1s10,0.1,10,2.1c0,0.7-0.9,1.2-2.8,1.6
				c-0.3,0-0.5-0.1-0.6-0.4s0.1-0.5,0.4-0.6c1.2-0.2,1.7-0.5,1.9-0.6c-0.7-0.4-3.6-1.1-8.9-1.1c-5.3,0-8.2,0.7-8.9,1.1
				c0.6,0.4,3.6,1.1,8.9,1.1c1.4,0,2.7,0,3.9-0.1c0.3,0,0.5,0.2,0.5,0.5s-0.2,0.5-0.5,0.5C157.6,76.2,156.3,76.2,154.9,76.2z"/>
		</g>
		<g>
			<path class="st4" d="M154.9,78.6c-2.4,0-4.8-0.2-7-0.5c-0.3,0-0.5-0.3-0.4-0.6c0-0.3,0.3-0.5,0.6-0.4c2.1,0.3,4.4,0.5,6.8,0.5
				c8.4,0,13.6-1.8,13.6-3.2s-5.2-3.2-13.6-3.2c-8.4,0-13.6,1.8-13.6,3.2c0,0.3,0.4,0.7,1.1,1.1c0.2,0.1,0.3,0.4,0.2,0.7
				c-0.1,0.2-0.4,0.3-0.7,0.2c-1.1-0.6-1.6-1.3-1.6-2c0-2.7,7.3-4.2,14.6-4.2c7.2,0,14.6,1.4,14.6,4.2
				C169.4,77.2,162.1,78.6,154.9,78.6z"/>
		</g>
		<g>
			<path class="st4" d="M154.9,81.3c-9.2,0-18.7-2.4-18.7-6.3c0-3.9,9.5-6.3,18.7-6.3s18.7,2.4,18.7,6.3
				C173.6,78.9,164.1,81.3,154.9,81.3z M154.9,69.6c-10.6,0-17.7,2.8-17.7,5.3s7.1,5.3,17.7,5.3s17.7-2.8,17.7-5.3
				S165.5,69.6,154.9,69.6z"/>
		</g>
		<g>
			<path class="st4" d="M154.9,86.3c-14.3,0-25.6-3.9-25.6-8.8c0-4.9,11.2-8.8,25.6-8.8c0.3,0,0.5,0.2,0.5,0.5s-0.2,0.5-0.5,0.5
				c-13.3,0-24.6,3.6-24.6,7.8c0,4.2,11.2,7.8,24.6,7.8c0.3,0,0.5,0.2,0.5,0.5S155.1,86.3,154.9,86.3z"/>
		</g>
		<g>
			<path class="st4" d="M180.3,98.6c-0.3,0-0.5-0.2-0.5-0.5v-4.4c0-4.8-8.8-7.4-24.9-7.4c-0.3,0-0.5-0.2-0.5-0.5s0.2-0.5,0.5-0.5
				c11.8,0,25.9,1.5,25.9,8.4v4.4C180.8,98.4,180.5,98.6,180.3,98.6z"/>
		</g>
		<g>
			<path class="st4" d="M140.9,96.9c-0.3,0-0.5-0.2-0.5-0.5v-5.3c0-0.3,0.2-0.5,0.5-0.5s0.5,0.2,0.5,0.5v5.3
				C141.4,96.7,141.2,96.9,140.9,96.9z"/>
		</g>
		<g>
			<path class="st4" d="M143.7,97.5c-0.3,0-0.5-0.2-0.5-0.5v-5.3c0-0.3,0.2-0.5,0.5-0.5s0.5,0.2,0.5,0.5V97
				C144.2,97.2,144,97.5,143.7,97.5z"/>
		</g>
		<g>
			<path class="st4" d="M146.5,97.8c-0.3,0-0.5-0.2-0.5-0.5v-7.4c0-0.3,0.2-0.5,0.5-0.5s0.5,0.2,0.5,0.5v7.4
				C147,97.6,146.8,97.8,146.5,97.8z"/>
		</g>
		<g>
			<path class="st4" d="M149.3,98.1c-0.3,0-0.5-0.2-0.5-0.5v-5.3c0-0.3,0.2-0.5,0.5-0.5s0.5,0.2,0.5,0.5v5.3
				C149.8,97.9,149.6,98.1,149.3,98.1z"/>
		</g>
		<g>
			<path class="st4" d="M152.1,98.3c-0.3,0-0.5-0.2-0.5-0.5v-5.3c0-0.3,0.2-0.5,0.5-0.5s0.5,0.2,0.5,0.5v5.3
				C152.6,98,152.4,98.3,152.1,98.3z"/>
		</g>
		<g>
			<path class="st4" d="M154.9,98.3c-0.3,0-0.5-0.2-0.5-0.5v-7.4c0-0.3,0.2-0.5,0.5-0.5s0.5,0.2,0.5,0.5v7.4
				C155.4,98.1,155.1,98.3,154.9,98.3z"/>
		</g>
		<g>
			<path class="st4" d="M157.7,98.3c-0.3,0-0.5-0.2-0.5-0.5v-5.4c0-0.3,0.2-0.5,0.5-0.5s0.5,0.2,0.5,0.5v5.4
				C158.2,98.1,157.9,98.3,157.7,98.3z"/>
		</g>
		<g>
			<path class="st4" d="M160.4,98.4c-0.3,0-0.5-0.2-0.5-0.5v-5.3c0-0.3,0.2-0.5,0.5-0.5s0.5,0.2,0.5,0.5v5.3
				C160.9,98.2,160.7,98.4,160.4,98.4z"/>
		</g>
		<g>
			<path class="st4" d="M163.2,98.6c-0.3,0-0.5-0.2-0.5-0.5v-7.4c0-0.3,0.2-0.5,0.5-0.5s0.5,0.2,0.5,0.5v7.4
				C163.7,98.4,163.5,98.6,163.2,98.6z"/>
		</g>
		<g>
			<path class="st4" d="M166,98.9c-0.3,0-0.5-0.2-0.5-0.5v-5.3c0-0.3,0.2-0.5,0.5-0.5s0.5,0.2,0.5,0.5v5.3
				C166.5,98.6,166.3,98.9,166,98.9z"/>
		</g>
		<g>
			<path class="st4" d="M168.8,99.2c-0.3,0-0.5-0.2-0.5-0.5v-5.3c0-0.3,0.2-0.5,0.5-0.5s0.5,0.2,0.5,0.5v5.3
				C169.3,99,169.1,99.2,168.8,99.2z"/>
		</g>
		<g>
			<path class="st4" d="M171.6,99.8c-0.3,0-0.5-0.2-0.5-0.5v-7.4c0-0.3,0.2-0.5,0.5-0.5s0.5,0.2,0.5,0.5v7.4
				C172.1,99.5,171.8,99.8,171.6,99.8z"/>
		</g>
		<g>
			<path class="st4" d="M174.4,100.5c-0.3,0-0.5-0.2-0.5-0.5v-5.3c0-0.3,0.2-0.5,0.5-0.5s0.5,0.2,0.5,0.5v5.3
				C174.9,100.3,174.6,100.5,174.4,100.5z"/>
		</g>
		<g>
			<path class="st4" d="M139.4,84.4c-0.3,0-0.5-0.2-0.5-0.5v-3.4c0-0.3,0.2-0.5,0.5-0.5s0.5,0.2,0.5,0.5v3.4
				C139.9,84.2,139.6,84.4,139.4,84.4z"/>
		</g>
		<g>
			<path class="st4" d="M142.1,85.1c-0.3,0-0.5-0.2-0.5-0.5v-2.1c0-0.3,0.2-0.5,0.5-0.5s0.5,0.2,0.5,0.5v2.1
				C142.6,84.9,142.4,85.1,142.1,85.1z"/>
		</g>
		<g>
			<path class="st4" d="M144.9,85.6c-0.3,0-0.5-0.2-0.5-0.5v-1.8c0-0.3,0.2-0.5,0.5-0.5s0.5,0.2,0.5,0.5v1.9
				C145.4,85.4,145.2,85.6,144.9,85.6z"/>
		</g>
		<g>
			<path class="st4" d="M147.7,86c-0.3,0-0.5-0.2-0.5-0.5v-2.6c0-0.3,0.2-0.5,0.5-0.5s0.5,0.2,0.5,0.5v2.6
				C148.2,85.7,148,86,147.7,86z"/>
		</g>
		<g>
			<path class="st4" d="M150.5,86.2c-0.3,0-0.5-0.2-0.5-0.5v-1.6c0-0.3,0.2-0.5,0.5-0.5s0.5,0.2,0.5,0.5v1.6
				C151,86,150.8,86.2,150.5,86.2z"/>
		</g>
		<g>
			<path class="st4" d="M153.3,86.3c-0.3,0-0.5-0.2-0.5-0.5v-2.5c0-0.3,0.2-0.5,0.5-0.5s0.5,0.2,0.5,0.5v2.5
				C153.8,86.1,153.6,86.3,153.3,86.3z"/>
		</g>
		<g>
			<path class="st4" d="M156.1,86.2c-0.3,0-0.5-0.2-0.5-0.5v-1.5c0-0.3,0.2-0.5,0.5-0.5s0.5,0.2,0.5,0.5v1.5
				C156.6,86,156.3,86.2,156.1,86.2z"/>
		</g>
		<g>
			<path class="st4" d="M158.8,86.3c-0.3,0-0.5-0.2-0.5-0.5v-2.6c0-0.3,0.2-0.5,0.5-0.5s0.5,0.2,0.5,0.5v2.6
				C159.3,86.1,159.1,86.3,158.8,86.3z"/>
		</g>
		<g>
			<path class="st4" d="M161.6,86.5c-0.3,0-0.5-0.2-0.5-0.5v-2.2c0-0.3,0.2-0.5,0.5-0.5s0.5,0.2,0.5,0.5V86
				C162.1,86.3,161.9,86.5,161.6,86.5z"/>
		</g>
		<g>
			<path class="st4" d="M164.4,86.7c-0.3,0-0.5-0.2-0.5-0.5v-2.9c0-0.3,0.2-0.5,0.5-0.5s0.5,0.2,0.5,0.5v2.8
				C164.9,86.5,164.7,86.7,164.4,86.7z"/>
		</g>
		<g>
			<path class="st4" d="M167.2,87c-0.3,0-0.5-0.2-0.5-0.5v-4.7c0-0.3,0.2-0.5,0.5-0.5s0.5,0.2,0.5,0.5v4.7
				C167.7,86.8,167.5,87,167.2,87z"/>
		</g>
		<g>
			<path class="st4" d="M170,87.4c-0.3,0-0.5-0.2-0.5-0.5v-5.3c0-0.3,0.2-0.5,0.5-0.5s0.5,0.2,0.5,0.5v5.3
				C170.5,87.2,170.3,87.4,170,87.4z"/>
		</g>
		<g>
			<path class="st4" d="M177.1,101.6c-0.3,0-0.5-0.2-0.5-0.5V96c0-0.3,0.2-0.5,0.5-0.5s0.5,0.2,0.5,0.5v5.1
				C177.6,101.4,177.4,101.6,177.1,101.6z"/>
		</g>
		<g>
			<path class="st4" d="M170.3,87.5c-0.2,0-0.4-0.1-0.5-0.3c-0.1-0.3,0.1-0.5,0.3-0.6c1.8-0.6,2.3-1.6,2.4-1.9v-9.6
				c0-0.3,0.2-0.5,0.5-0.5s0.5,0.2,0.5,0.5v9.7v0.1C173.5,85,172.9,86.7,170.3,87.5C170.4,87.5,170.3,87.5,170.3,87.5z"/>
		</g>
		<g>
			<path class="st4" d="M180.3,106.2c-0.3,0-0.5-0.2-0.5-0.5l0,0c0-4.8-8.8-7.4-24.9-7.4c-14.3,0-25.6-3.9-25.6-8.8v-5
				c0-0.3,0.2-0.5,0.5-0.5s0.5,0.2,0.5,0.5v5c0,4.2,11.2,7.8,24.6,7.8c9.9,0,21.5,1,24.9,5.5v-1.9c0-0.3,0.2-0.5,0.5-0.5l0,0
				c0.3,0,0.5,0.2,0.5,0.5v4.8l0,0l0,0l0,0C180.8,106,180.5,106.2,180.3,106.2L180.3,106.2z"/>
		</g>
	</g>
</g>
</symbol><symbol id="tooltip" viewBox="0 0 24 24">
<style type="text/css">
	.st0{fill:none;}
	.st1{fill:#00aaff;}
</style>
    <path class="st0" d="M0-0.000015h24v24H0V-0.000015z"/>
    <path class="st1" d="M11,6.999985h2v2h-2V6.999985z M11,10.999986h2v5.999999h-2V10.999986z M12,1.999985c-5.52,0-10,4.48-10,10  s4.48,9.999999,10,9.999999s10-4.48,10-9.999999S17.52,1.999985,12,1.999985z M12,19.999985c-4.41,0-8-3.59-8-7.999999s3.59-8,8-8  s8,3.59,8,8S16.41,19.999985,12,19.999985z"/>
</symbol><symbol id="boot" viewBox="0 0 120 120">
<title>boot</title>
    <g id="Layer_2">
    <g id="Desktop-Step_3">
        <path fill="#FFFFFF" d="M101.8,73.3l-9.4-3.8c-2.2-1-4-2.8-5-5c-6.6-19.9-11.3-34-11.3-34c-0.1-0.3-0.4-0.5-0.7-0.5
            c-0.4,0-9.3-0.4-13.2,4.8c-1.8-1.6-3.3-3.6-4.4-5.8c-0.4-1-0.4-2.1-0.1-3.1v-0.3c0.1-1.5,0.2-3.3-1-4.8c-1.1-1.2-2.8-1.8-5.4-1.8
            h-0.3c-9.8,0-18.1,5.3-24,15.3c-0.1,0.1-0.1,0.2-0.2,0.3L25.8,35c-2.6,1.3-5.6,2.8-6.7,3.5c-1.9,1.7-2.5,4.4-1.4,6.7
            c2.3,4.2,9,14.5,20.5,19.8c2.6,1.2,8.9,5.4,8.9,5.4c2.5,2,4.7,4.3,6.8,6.7l1.3,1.7c0.2,0.3,0.7,0.4,1,0.2c2.2,2.8,3.9,5.4,5.5,7.4
            c-0.2,0.3-0.2,0.8,0.1,1.1l1.7,1.4c3.1,2.5,6.7,4.2,10.6,4.8l2.2,0.4c4.3,0.5,8.5,0.7,12.8,0.6h2.2c16.7,0,20.4-10.6,20.4-13.2
            C111.8,75.8,102.8,73.5,101.8,73.3z M43.2,54.2L43.2,54.2L43.2,54.2z"/>
        <polygon fill="#84D1F5" points="47.2,41.5 45.7,47.3 42.8,53.7 42.8,55.6 47.8,60.5 52.5,62.5 57.2,65.4 61.8,68.9 65.7,74.7
            67,77 68.8,75.8 68.2,62.1 64,51.7 52.8,43.3"/>
        <path fill="#E0E3E5" d="M108.6,77c-9.9,14.3-35.4,9.1-39.9,1.7c-2.5-4-6.3-11.9-17.4-16.9S26.9,35,26.9,35
            c-2.7,1.4-6.8,3.4-8.1,4.2c-1.6,1.5-2.1,3.8-1.2,5.8c3.3,5.9,10.1,15,20.5,19.8c2.7,1.3,9.3,5.6,9.3,5.6c2.6,2.1,4.9,4.4,7,6.9
            l1.4,1.7c2.6,3.4,4.6,6.5,6.6,8.7l1.7,1.5c3,2.4,6.6,4.1,10.4,4.7l2.2,0.4C81,94.8,85.4,95,89.7,95h2.2
            c16.4,0,20.5-11.8,20.5-14.4L108.6,77z"/>
        <path fill="#37414C" d="M91.9,95.4h-2.2c-4.3,0.1-8.7-0.2-13-0.6l-2.3-0.4c-3.9-0.7-7.7-2.4-10.8-4.9L61.9,88
            c-0.3-0.3-0.3-0.8-0.1-1.1c0.3-0.3,0.8-0.3,1.1-0.1l1.7,1.5c2.9,2.3,6.4,3.9,10.1,4.5l2.2,0.4c4.3,0.5,8.5,0.7,12.8,0.6h2.2
            c15.7,0,19.2-9.5,19.2-11.9c0-4.1-6.7-6.4-9-6.9h-0.1l-9.6-3.9c-2.7-1.2-4.8-3.3-6-6C80.4,47.1,76,33.7,75.1,31
            c-2,0-9.4,0.3-12,4.9c-0.1,0.2-0.3,0.3-0.5,0.4c-0.2,0-0.4,0-0.6-0.2c-2.3-1.9-4.2-4.3-5.6-7c-0.5-1.3-0.6-2.7-0.3-4v-0.2
            c0.1-1.4,0.2-2.7-0.7-3.8s-2.1-1.3-4.3-1.3h-0.3c-9.4,0-17.4,5.1-23.1,14.9l-0.1,0.1c0,0.1-0.1,0.2-0.1,0.3
            c-0.1,0.1-0.2,0.3-0.3,0.3l-1.4,0.7c-2.5,1.2-5.6,2.8-6.6,3.5c-1.3,1.2-1.7,3.2-0.9,4.8c2.3,4.1,8.8,14.3,20.2,19.4
            c2.8,1.3,9.1,5.4,9.4,5.6c2.6,2.1,5.1,4.5,7.3,7.1l1.4,1.7c0.3,0.3,0.2,0.8-0.1,1.1c-0.3,0.3-0.8,0.2-1.1-0.1c0,0,0,0,0,0
            l-1.4-1.7c-2.1-2.5-4.4-4.8-6.9-6.8c0,0-6.5-4.3-9.1-5.5c-11.7-5.3-18.5-15.8-20.9-20.1c-1.1-2.3-0.5-5.1,1.4-6.8
            c1.1-0.7,4.1-2.2,6.8-3.6l1.2-0.6c0-0.1,0.1-0.2,0.2-0.3c6-10.2,14.5-15.6,24.4-15.6h0.3c2.6,0,4.3,0.6,5.4,1.8
            c1.3,1.5,1.2,3.3,1.1,4.9v0.3c-0.3,1.1-0.2,2.2,0.1,3.2c1.1,2.3,2.6,4.3,4.5,5.9c3.8-5.3,13-4.9,13.4-4.9c0.3,0,0.6,0.2,0.7,0.5
            c0,0,4.8,14.4,11.5,34.6c1,2.3,2.9,4.1,5.2,5.1l9.5,3.9c0.9,0.2,10.1,2.5,10.1,8.4C112.6,84.7,108.9,95.4,91.9,95.4z M27.6,34.8
            L27.6,34.8z"/>
        <path fill="#37414C" d="M75.5,41.7c-9.4,0-13.5-5.5-13.7-5.7c-0.2-0.4,0-0.8,0.3-1c0.3-0.1,0.6-0.1,0.8,0.1l0,0
            c0.2,0.3,4.8,6.4,15.8,4.9c0.4-0.1,0.8,0.2,0.8,0.6c0.1,0.4-0.2,0.8-0.6,0.8C77.8,41.6,76.7,41.7,75.5,41.7z"/>
        <path fill="#37414C" d="M88.8,87h-0.9c-8.5-0.2-17.2-3.8-19.9-8.1c-0.2-0.4-0.5-0.8-0.8-1.3c-2.4-4.1-6.5-11-16.3-15.3
            C46,60.1,40.3,54.6,33.7,46c-0.2-0.3-0.1-0.8,0.2-1c0.3-0.2,0.7-0.2,1,0.1c6.3,8.3,12.1,13.7,16.6,15.8c10.3,4.6,14.5,11.7,17,16
            c0.3,0.4,0.5,0.9,0.8,1.3c2.1,3.4,9.6,7.1,18.6,7.4c4.9,0.1,13.9-0.8,19.2-8.4c0.2-0.3,0.7-0.4,1-0.2c0.3,0.2,0.4,0.7,0.2,1
            C103,85.7,94.1,87,88.8,87z"/>
        <path fill="#37414C" d="M30.4,40.9c-0.2,0-0.5-0.1-0.6-0.3c-2.2-3.2-3.6-5.4-3.6-5.5c-0.2-0.4-0.1-0.8,0.3-1
            c0.3-0.2,0.8-0.1,1,0.2c0,0,1.4,2.3,3.5,5.4c0.2,0.3,0.2,0.8-0.2,1C30.7,40.8,30.5,40.9,30.4,40.9L30.4,40.9z"/>
        <path fill="#37414C" d="M41.9,54.7c-0.4,0-0.8-0.3-0.8-0.7c0-0.2,0.1-0.4,0.2-0.5c8.4-9.1,5.6-33.8,5.6-34c0-0.4,0.3-0.8,0.7-0.8
            c0.4,0,0.8,0.2,0.8,0.6c0.1,1,2.9,25.6-6,35.3C42.3,54.7,42.1,54.7,41.9,54.7z"/>
        <path fill="#37414C" d="M68.6,79.2L68.6,79.2c-0.5,0-0.8-0.4-0.8-0.8c0-0.1,1.4-12.3-1.9-21.7c-3.2-9.2-18.7-15.1-18.8-15.2
            c-0.4-0.1-0.6-0.6-0.4-1s0.6-0.6,1-0.4l0,0c0.7,0.3,16.4,6.2,19.7,16.1c3.3,9.7,2,21.8,1.9,22.3C69.3,78.9,69,79.2,68.6,79.2z"/>
        <path fill="#37414C" d="M88.3,79.2c-0.4,0-0.8-0.3-0.8-0.8s0.3-0.8,0.8-0.8c4.6-0.1,9-1.3,13-3.5c0.4-0.2,0.8-0.1,1,0.3
            s0.1,0.8-0.3,1C97.9,77.8,93.1,79.1,88.3,79.2z"/>
        <path fill="#84D1F5" d="M9.4,70.5C9.7,83.8,20.7,94.4,34,94.1c12.9-0.3,23.3-10.7,23.6-23.6"/>
        <path fill="#FFFFFF" d="M30,69.2c0-1.9,7-1.9,7,0c-0.1,1.9-1.8,3.4-3.8,3.2C31.5,72.3,30.1,71,30,69.2z"/>
        <path fill="#FFFFFF" d="M30,69.7h7c0,1.9-1.6,3.5-3.5,3.5l0,0"/>
        <path fill="#FFFFFF" d="M15.8,70.8c0,9.8,7.9,17.7,17.7,17.7s17.7-7.9,17.7-17.7"/>
        <path fill="#37414C" d="M33.5,89.2c-10.2,0-18.4-8.2-18.4-18.4c0-0.4,0.3-0.8,0.8-0.8s0.8,0.3,0.8,0.8c0,9.4,7.6,16.9,16.9,16.9
            s16.9-7.6,16.9-16.9l0,0c0-0.4,0.3-0.8,0.8-0.8s0.8,0.3,0.8,0.8C51.9,80.9,43.7,89.2,33.5,89.2z"/>
        <path fill="#37414C" d="M33.5,74.8c-2.3,0-4.2-1.9-4.3-4.3c0-0.4,0.3-0.8,0.8-0.8s0.8,0.3,0.8,0.8c0,1.5,1.2,2.8,2.8,2.8
            s2.8-1.2,2.8-2.8c0-0.4,0.3-0.8,0.8-0.8s0.8,0.3,0.8,0.8C37.8,72.9,35.9,74.8,33.5,74.8z"/>
        <line fill="none" x1="57.6" y1="70.5" x2="37" y2="70.5"/>
        <path fill="#37414C" d="M57.6,71.3H37c-0.4,0-0.8-0.3-0.8-0.8s0.3-0.8,0.8-0.8h20.6c0.4,0,0.8,0.3,0.8,0.8S58,71.3,57.6,71.3z"/>
        <line fill="none" x1="9.4" y1="70.5" x2="30" y2="70.5"/>
        <path fill="#37414C" d="M30,71.3H9.4c-0.4,0-0.8-0.3-0.8-0.8s0.3-0.8,0.8-0.8H30c0.4,0,0.8,0.3,0.8,0.8S30.4,71.3,30,71.3z"/>
        <line fill="none" x1="33.5" y1="88.5" x2="33.5" y2="74"/>
        <path fill="#37414C" d="M33.5,89.2c-0.4,0-0.8-0.3-0.8-0.8V74c0-0.4,0.3-0.8,0.8-0.8s0.8,0.3,0.8,0.8v14.5
            C34.3,88.9,33.9,89.2,33.5,89.2z"/>
        <line fill="none" x1="35.5" y1="73.5" x2="45.7" y2="83.7"/>
        <path fill="#37414C" d="M45.7,84.4c-0.2,0-0.4-0.1-0.5-0.2L35,74c-0.2-0.4,0-0.8,0.4-1c0.2-0.1,0.4-0.1,0.6,0l10.2,10.1
            c0.3,0.3,0.3,0.8,0,1.1C46.1,84.3,45.9,84.4,45.7,84.4z"/>
        <line fill="none" x1="31.6" y1="73.5" x2="21.7" y2="84"/>
        <path fill="#37414C" d="M21.7,84.7c-0.4,0-0.8-0.3-0.8-0.7c0-0.2,0.1-0.4,0.2-0.5L31.1,73c0.2-0.3,0.7-0.4,1-0.2
            c0.3,0.2,0.4,0.7,0.2,1c0,0.1-0.1,0.1-0.2,0.2l-9.9,10.5C22.1,84.7,21.9,84.7,21.7,84.7z"/>
        <path fill="#37414C" d="M33.5,95.3c-6.3,0-12.3-2.4-16.9-6.6c-0.3-0.2-0.4-0.7-0.2-1c0.2-0.3,0.7-0.4,1-0.2c0.1,0,0.1,0.1,0.1,0.1
            c9.4,8.8,24.2,8.2,33-1.2c4-4.3,6.2-10,6.2-15.9c0-0.4,0.3-0.8,0.8-0.8s0.8,0.3,0.8,0.8C58.3,84.2,47.2,95.3,33.5,95.3z"/>
        <path fill="#37414C" d="M10.4,77.8c-0.3,0-0.6-0.2-0.7-0.6C9,75,8.7,72.8,8.7,70.5c0-0.4,0.3-0.8,0.8-0.8s0.8,0.3,0.8,0.8
            c0,2.1,0.3,4.3,0.9,6.3c0.1,0.4-0.1,0.8-0.5,0.9c0,0,0,0,0,0L10.4,77.8z"/>
        <path fill="#FFFFFF" stroke="#37414C" stroke-width="1.5" stroke-linecap="round" stroke-linejoin="round" d="M15.8,70.8"/>
        <path fill="#37414B" d="M119.3,95.4H14.1c-0.4,0-0.8-0.3-0.8-0.8s0.3-0.8,0.8-0.8l0,0h105.2c0.4,0,0.8,0.3,0.8,0.8
            S119.7,95.4,119.3,95.4L119.3,95.4z"/>
        <path fill="#37414B" d="M7.8,95.4H0.8c-0.4,0-0.8-0.3-0.8-0.8s0.3-0.8,0.8-0.8h7.1c0.4,0,0.8,0.3,0.8,0.8S8.2,95.4,7.8,95.4z"/>
        <path fill="#FFFFFF" d="M61.8,63.5h-0.1C61.2,63.4,61,63,61,62.6c1-6.2-10.6-12.4-10.7-12.5c-0.4-0.2-0.5-0.6-0.3-1
            c0.2-0.4,0.6-0.5,1-0.3l0,0c0.5,0.3,12.6,6.7,11.5,14C62.5,63.2,62.1,63.5,61.8,63.5z"/>
        <rect fill="none" width="120" height="120"/>
    </g>
</g>
</symbol><symbol id="info" viewBox="0 0 120 120">
<title>info</title>
    <g id="Layer_2">
    <g id="Desktop-Step_2">
        <path fill="#FFFFFF" d="M100.2,81.6l-71.3-0.8c-1.9,0-3.4-1.5-3.4-3.4V19.2c0-1.9,1.5-3.4,3.4-3.4h71.3c1.9,0,3.4,1.5,3.4,3.4v59
            C103.6,80.1,102.1,81.6,100.2,81.6L100.2,81.6z"/>
        <path fill="#84D1F5" d="M29.2,15.8h70.7c2.1,0,3.8,1.7,3.8,3.8l0,0v3.8l0,0H25.5l0,0v-3.8C25.5,17.4,27.2,15.8,29.2,15.8z"/>
        <path fill="#37414B" d="M101.2,82.3H86.5c-0.4,0-0.8-0.3-0.8-0.8s0.3-0.8,0.8-0.8h14.7c1-0.1,1.8-0.9,1.7-1.9V18.5
            c0.1-1-0.7-1.9-1.7-2H27.9c-1,0.1-1.8,0.9-1.7,2v51.1c0,0.4-0.3,0.8-0.8,0.8s-0.8-0.3-0.8-0.8V18.5c-0.1-1.8,1.4-3.4,3.2-3.5h73.3
            c1.8,0.1,3.3,1.6,3.2,3.5v60.4C104.5,80.7,103,82.3,101.2,82.3z"/>
        <rect x="25.4" y="22.9" fill="#37414B" width="78.2" height="1.5"/>
        <rect x="77.1" y="55.5" fill="#E0E3E5" width="15.7" height="15.8"/>
        <path fill="#37414B" d="M84.7,67.6L84.7,67.6c-0.2,0-0.5-0.1-0.6-0.3l-3.7-5c-0.2-0.3-0.2-0.8,0.2-1c0.3-0.2,0.8-0.2,1,0.2l0,0
            l3.1,4.2L93,55.3c0.3-0.3,0.7-0.4,1.1-0.1c0.3,0.3,0.4,0.7,0.1,1.1l-8.9,11C85.2,67.5,85,67.6,84.7,67.6z"/>
        <path fill="#37414B" d="M92.8,72.1H77.1c-0.4,0-0.8-0.3-0.8-0.8V55.5c0-0.4,0.3-0.8,0.8-0.8h9.6c0.4,0,0.8,0.3,0.8,0.8
            s-0.3,0.8-0.8,0.8h-8.9v14.3h14.2v-5.8c0-0.4,0.3-0.8,0.8-0.8s0.8,0.3,0.8,0.8v6.6C93.6,71.7,93.3,72.1,92.8,72.1z"/>
        <rect x="77.1" y="31.9" fill="#E0E3E5" width="15.7" height="15.8"/>
        <path fill="#37414B" d="M84.7,43.9L84.7,43.9c-0.2,0-0.5-0.1-0.6-0.3l-3.7-5c-0.2-0.3-0.2-0.8,0.2-1c0.3-0.2,0.8-0.2,1,0.2
            l3.1,4.2L93,31.7c0.3-0.3,0.7-0.4,1.1-0.1c0.3,0.3,0.4,0.7,0.1,1.1l-8.9,11C85.2,43.8,85,43.9,84.7,43.9z"/>
        <path fill="#37414B" d="M92.8,48.4H77.1c-0.4,0-0.8-0.3-0.8-0.8V31.9c0-0.4,0.3-0.8,0.8-0.8h9.6c0.4,0,0.8,0.3,0.8,0.8
            c0,0.4-0.3,0.8-0.8,0.8h-8.9v14.3h14.2v-5.8c0-0.4,0.3-0.8,0.8-0.8s0.8,0.3,0.8,0.8v6.6C93.6,48.1,93.3,48.4,92.8,48.4z"/>
        <path fill="#E1E4E6" d="M12.3,78.2C4.3,63.4,9.8,45,24.5,37.1s33.1-2.5,41.1,12.3s2.5,33.1-12.3,41.1c0,0-0.1,0-0.1,0
            C38.5,98.3,20.2,92.8,12.3,78.2z"/>
        <path fill="#37414B" d="M22.4,89.9c-0.1,0-0.3,0-0.4-0.1C7.6,80.3,3.7,61.1,13.1,46.7c5.4-8.2,14.5-13.4,24.3-13.9
            c0.4,0,0.8,0.3,0.8,0.7s-0.3,0.8-0.7,0.8c-16.3,0.8-28.9,14.7-28,31c0.5,9.4,5.4,18,13.3,23.2c0.3,0.2,0.4,0.7,0.2,1
            C22.8,89.8,22.6,89.9,22.4,89.9z"/>
        <path fill="#37414B" d="M38.9,94.8c-0.9,0-1.7,0-2.6-0.1c-0.4,0-0.7-0.4-0.7-0.8c0,0,0,0,0,0c0-0.4,0.4-0.7,0.8-0.7
            c5.7,0.5,11.4-0.7,16.5-3.4c14.4-7.7,19.8-25.6,12.1-40c-2.7-5.1-6.9-9.3-11.9-12c-0.4-0.2-0.5-0.6-0.3-1c0.2-0.4,0.6-0.5,1-0.3
            c0,0,0,0,0.1,0c15.1,8.2,20.6,27.1,12.4,42.2c-5.3,9.7-15.4,15.9-26.5,16.2L38.9,94.8z"/>
        <path fill="#37414B" d="M67.4,89.7c-0.2,0-0.4-0.1-0.5-0.2l-5.6-4.9c-0.3-0.3-0.3-0.8-0.1-1.1c0.3-0.3,0.8-0.3,1.1-0.1l0,0
            l5.6,4.9c0.3,0.3,0.3,0.7,0.1,1.1C67.8,89.6,67.6,89.7,67.4,89.7z"/>
        <path fill="#84D1F5" d="M99.3,117.1L99.3,117.1c-2.3,2.6-6.4,2.9-9,0.5c0,0,0,0,0,0L67.9,97.8c-2.6-2.3-2.8-6.2-0.5-8.8l0,0
            c2.3-2.6,6.4-2.9,9-0.5c0,0,0,0,0,0l22.4,19.8C101.4,110.6,101.6,114.5,99.3,117.1z"/>
        <path fill="#37414B" d="M94.6,120c-1.7,0-3.4-0.6-4.7-1.8L67.4,98.4c-2.9-2.5-3.2-7-0.6-9.9c0,0,0,0,0,0c2.6-2.9,7.1-3.2,10-0.6
            l22.5,19.9c2.9,2.5,3.2,7,0.6,9.9c0,0,0,0,0,0C98.6,119.1,96.6,120,94.6,120z M72.2,87.6c-1.6,0-3.1,0.7-4.2,1.9
            c-2,2.3-1.8,5.8,0.5,7.8l22.4,19.8c2.3,2,5.9,1.8,7.9-0.5l0,0c2-2.3,1.8-5.8-0.5-7.8L75.9,89C74.8,88.1,73.5,87.6,72.2,87.6z"/>
    
        <ellipse transform="matrix(0.9982 -6.070012e-02 6.070012e-02 0.9982 -3.7993 2.4843)" fill="#FFFFFF" cx="39" cy="63.8" rx="22.9" ry="22.9"/>
        <path fill="#FFFFFF" d="M84.9,104.6c-0.2,0-0.4-0.1-0.5-0.2l-10.9-10c-0.3-0.3-0.3-0.8,0-1.1c0.3-0.2,0.7-0.3,1-0.1l10.9,10
            c0.3,0.3,0.3,0.8,0,1.1C85.3,104.5,85.1,104.6,84.9,104.6L84.9,104.6z"/>
        <path fill="#37414B" d="M39,87.2c-12.4,0-22.6-9.6-23.4-22l0,0c-0.8-12.9,9-24,21.9-24.8s24,9,24.8,21.9c0.8,12.9-9,24-21.9,24.8
            c0,0,0,0,0,0C39.9,87.1,39.5,87.2,39,87.2z M39,41.9c-0.5,0-0.9,0-1.3,0C25.6,42.6,16.4,53,17.1,65.1c0,0,0,0,0,0.1l0,0
            c0.7,12.1,11.1,21.3,23.2,20.5s21.3-11.1,20.5-23.2C60.1,50.9,50.6,41.9,39,41.9L39,41.9z"/>
        <path fill="#37414C" d="M39.2,69.2c-0.4,0-0.8-0.3-0.8-0.8s0.3-0.8,0.8-0.8c3.9,0,7-3.1,7-7c0-0.4,0.3-0.8,0.8-0.8
            s0.8,0.3,0.8,0.8l0,0C47.7,65.4,43.9,69.2,39.2,69.2z"/>
        <path fill="#37414C" d="M24.5,75.6c-0.4,0-0.7-0.3-0.7-0.8c0-0.3,0.2-0.6,0.5-0.7l9.5-3v-3.9c-2-1.6-3.1-4-3.1-6.6v-3.1
            c0-4.7,3.8-8.5,8.5-8.5s8.5,3.8,8.5,8.5l0,0v3.1c0,2.5-1.1,4.9-3.1,6.5v3.9l8.8,2.9c0.4,0.1,0.6,0.6,0.5,0.9s-0.6,0.6-0.9,0.5l0,0
            l-9.3-3c-0.3-0.1-0.5-0.4-0.5-0.7v-4.9c0-0.2,0.1-0.5,0.3-0.6c1.7-1.3,2.8-3.4,2.8-5.5v-3.1c0-3.9-3.1-7-7-7s-7,3.1-7,7v3.1
            c0,2.2,1.1,4.3,2.8,5.6c0.2,0.1,0.3,0.4,0.3,0.6v4.7c0,0.3-0.2,0.6-0.5,0.7l-10,3.2C24.7,75.6,24.6,75.6,24.5,75.6z"/>
        <rect fill="none" width="120" height="120"/>
    </g>
</g>
</symbol><symbol id="plan" viewBox="0 0 120 120">
<title>plan</title>
    <g id="Layer_2">
	<g id="Desktop-Step_1">
		<path fill="#FFFFFF" d="M85.8,99.2H27c-2.6,0-4.7-2.1-4.7-4.7v-77c0-2.6,2.1-4.7,4.7-4.7h56c2.6,0,4.7,2.1,4.7,4.7v57"/>
        <path fill="#37414B" d="M87.8,50.5c-0.4,0-0.8-0.3-0.8-0.8V17.9c0-2.2-1.8-3.9-3.9-3.9c0,0,0,0,0,0H27.3c-2.2,0-3.9,1.8-3.9,3.9
			v28.2c0,0.4-0.3,0.8-0.8,0.8s-0.8-0.3-0.8-0.8V17.9c0-3,2.4-5.4,5.4-5.4h55.8c3,0,5.4,2.4,5.4,5.4v31.9
			C88.5,50.2,88.2,50.5,87.8,50.5z"/>
        <path fill="#E1E4E6" d="M30.3,80.9c-0.9,7.4,6.5,18,6.5,18H49c0,0-11.3-11.8-8.9-21.7S30.3,80.9,30.3,80.9z"/>
        <path fill="#7FD4FF" d="M41.8,30.9h28l-3.5,7.3H41.8c-2.2,0.1-4-1.5-4.2-3.6C37.8,32.4,39.6,30.8,41.8,30.9z"/>
        <path fill="#7FD4FF" d="M41.8,85.6h28l-3.5,7.3H41.8c-2,0.3-3.9-1.1-4.2-3.1c-0.3-2,1.1-3.9,3.1-4.2
			C41.1,85.6,41.4,85.6,41.8,85.6z"/>
        <path fill="#7FD4FF" d="M70.1,77.3H39.3l0.1-7.3h30.7c2-0.3,3.9,1.1,4.2,3.1s-1.1,3.9-3.1,4.2C70.8,77.3,70.4,77.3,70.1,77.3
			L70.1,77.3z"/>
        <path fill="#E1E4E6" d="M55.3,57.5c-1.5,0-3-0.6-4-1.8c-1.3-1.6-1.1-4,0.6-5.3c0.2-0.2,0.4-0.3,0.7-0.4
			c11.6-6.9,18-15.6,17.9-24.4c0-2.3,2.1-4.2,4.8-4.2s4.8,1.8,4.8,4.1c0.1,11.7-7.7,22.8-22.1,31.3C57.2,57.2,56.2,57.5,55.3,57.5z"/>
        <path fill="#37414C" d="M55.3,58.2c-1.8,0-3.4-0.7-4.6-2.1c-0.8-1-1.2-2.3-1-3.6c0.3-1.4,1.1-2.6,2.4-3.3
			c11.4-6.8,17.6-15.2,17.6-23.8c0-1.2,0.5-2.4,1.4-3.2c1.1-1.1,2.6-1.7,4.2-1.7c3.1,0,5.6,2.1,5.6,4.9c0.1,11.9-7.9,23.3-22.5,31.9
			C57.4,57.9,56.4,58.2,55.3,58.2z M75.3,22.1c-1.2,0-2.3,0.4-3.1,1.2c-0.6,0.6-0.9,1.4-0.9,2.2c0.1,9.1-6.4,18-18.3,25
			c-0.9,0.5-1.5,1.3-1.7,2.3c-0.1,0.9,0.1,1.7,0.6,2.4c0.8,1,2.1,1.5,3.4,1.5c0.8,0,1.6-0.2,2.3-0.6c14.1-8.4,21.8-19.3,21.7-30.6
			C79.3,23.6,77.5,22.1,75.3,22.1L75.3,22.1z"/>
        <path fill="#FFFFFF" d="M73.3,99c4.5-5.7,6.8-12,6.8-18.5C80,68.9,72.2,58.1,58,49.9l0,0c-11.5-6.8-17.9-15.4-17.9-24.1
			c0-2.3-2.2-4.1-4.8-4.1l0,0c-2.7,0-4.8,1.9-4.8,4.2c0.1,11.5,7.9,22.5,22.1,30.9l0,0l0,0c11.5,6.6,17.8,15,17.9,23.8
			c0,6.4-3.3,12.8-9.6,18.4"/>
        <path fill="#37414C" d="M73.3,99.7c-0.4,0-0.8-0.3-0.8-0.7c0-0.2,0.1-0.3,0.2-0.5c4.4-5.6,6.7-11.7,6.6-18
			c-0.1-11.3-7.8-21.9-21.7-29.9l0,0c-11.7-7-18.2-15.8-18.3-24.8c0-1.9-1.8-3.4-4.1-3.4c-1.2,0-2.3,0.4-3.1,1.2
			c-0.6,0.6-0.9,1.4-0.9,2.2c0.1,11.2,7.8,22,21.7,30.3l0.1,0.1c11.6,6.7,18.1,15.3,18.2,24.4c0,6.6-3.4,13.2-9.9,19
			c-0.3,0.3-0.8,0.2-1.1-0.1c-0.3-0.3-0.2-0.8,0.1-1.1l0,0c6.2-5.5,9.4-11.7,9.4-17.8c-0.1-8.5-6.3-16.7-17.5-23.1h-0.1
			c-14.4-8.7-22.4-19.8-22.5-31.6c0-1.2,0.5-2.4,1.3-3.3c1.1-1.1,2.6-1.7,4.2-1.7c3.1,0,5.6,2.2,5.6,4.9c0.1,8.5,6.3,16.8,17.6,23.5
			h0.1c14.4,8.3,22.4,19.4,22.4,31.2c0,6.7-2.3,13-7,18.9C73.7,99.6,73.5,99.7,73.3,99.7z"/>
        <path fill="#E1E4E6" d="M40,80.9L40,80.9c-0.1-8.2,5.3-16.1,15.3-22.5l-8-5.1c-11.1,7.8-17,17.4-16.9,27.7l0,0"/>
        <path fill="#37414C" d="M49.4,99.6c-0.2,0-0.4-0.1-0.5-0.2c-6.3-5.7-9.7-12.1-9.7-18.5c-0.1-8.1,5.1-16,14.7-22.5l-6.6-4.2
			C36.6,61.8,31,71,31.1,80.9c0,6,2.2,11.8,6.5,17.4c0.3,0.3,0.2,0.8-0.1,1.1c-0.3,0.3-0.8,0.2-1.1-0.1c-4.5-5.8-6.8-11.9-6.8-18.3
			c-0.1-10.6,5.9-20.3,17.2-28.3c0.3-0.2,0.6-0.2,0.8,0l8,5.1c0.3,0.2,0.4,0.7,0.2,1c-0.1,0.1-0.1,0.2-0.2,0.2
			c-9.7,6.2-15,14-15,21.8c0,6,3.2,12,9.2,17.4c0.3,0.3,0.3,0.7,0.1,1.1C49.8,99.5,49.6,99.6,49.4,99.6L49.4,99.6z"/>
        <path fill="#7FD4FF" d="M55.4,70h14.7c2-0.3,3.9,1.1,4.2,3.1s-1.1,3.9-3.1,4.2c-0.4,0.1-0.7,0.1-1.1,0h-15
			C52.8,77.3,53.1,70,55.4,70z"/>
        <path fill="#37414C" d="M70.1,78.1H40.3c-0.4,0-0.8-0.3-0.8-0.8s0.3-0.8,0.8-0.8h29.7c1.6,0.3,3.1-0.8,3.4-2.4
			c0.3-1.6-0.8-3.1-2.4-3.4c-0.4-0.1-0.7-0.1-1.1,0H43.5c-0.4,0-0.8-0.3-0.8-0.8s0.3-0.8,0.8-0.8h26.5c2.8,0,5,2,5,4.4
			S72.8,78.1,70.1,78.1z"/>
        <path fill="#7FD4FF" d="M56.5,92.9H41.8c-2,0.3-3.9-1.1-4.2-3.1c-0.3-2,1.1-3.9,3.1-4.2c0.4-0.1,0.7-0.1,1.1,0h15
			C59.1,85.6,58.8,92.9,56.5,92.9z"/>
        <path fill="#37414C" d="M65.9,93.7H41.8c-2.8,0-5-2-5-4.4s2.2-4.4,5-4.4h27.6c0.4,0,0.8,0.3,0.8,0.8s-0.3,0.8-0.8,0.8H41.8
			c-1.6-0.3-3.1,0.8-3.4,2.4c-0.3,1.6,0.8,3.1,2.4,3.4c0.4,0.1,0.7,0.1,1.1,0h24.1c0.4,0,0.8,0.3,0.8,0.8S66.3,93.7,65.9,93.7z"/>
        <path fill="#84D1F5" d="M56.5,38.2H41.8c-2.2,0.1-4-1.5-4.2-3.6c0.2-2.2,2.1-3.8,4.2-3.6h15C59.1,30.9,58.8,38.2,56.5,38.2z"/>
        <path fill="#37414C" d="M65.9,38.9H41.8c-2.8,0-5-2-5-4.4s2.2-4.4,5-4.4h27.6c0.4,0,0.8,0.3,0.8,0.8s-0.3,0.8-0.8,0.8H41.8
			c-1.8-0.1-3.3,1.1-3.5,2.9c0.2,1.8,1.7,3,3.5,2.9h24.1c0.4,0,0.8,0.3,0.8,0.8S66.3,38.9,65.9,38.9z"/>
        <path fill="#E1E4E6" d="M30.3,80.9"/>
        <path fill="#37414B" d="M76.7,99.8H27.3c-3,0-5.4-2.4-5.4-5.4V61.3c0-0.4,0.3-0.8,0.8-0.8s0.8,0.3,0.8,0.8v33.1
			c0,2.2,1.8,3.9,3.9,3.9h49.4c0.4,0,0.8,0.3,0.8,0.8S77.1,99.8,76.7,99.8L76.7,99.8z"/>
        <path fill="#E1E4E6" d="M64.6,49.8h29.6c1.7,0,3.1,1.4,3.1,3.1v50.8c0,1.7-1.4,3.1-3.1,3.1H64.6c-1.7,0-3.1-1.4-3.1-3.1V52.9
			C61.5,51.1,62.9,49.8,64.6,49.8z"/>
        <path fill="#37414B" d="M94.3,107.5H64.6c-2.1,0-3.9-1.7-3.9-3.8c0,0,0,0,0,0V52.9c0-2.1,1.7-3.9,3.9-3.9l0,0h29.6
			c2.1,0,3.9,1.7,3.9,3.8v50.8C98.1,105.8,96.4,107.5,94.3,107.5C94.3,107.5,94.3,107.5,94.3,107.5z M64.6,50.5
			c-1.3,0-2.4,1.1-2.4,2.3v50.8c0,1.3,1.1,2.4,2.3,2.4c0,0,0,0,0,0h29.6c1.3,0,2.4-1,2.4-2.3c0,0,0,0,0,0V52.9
			c0-1.3-1.1-2.4-2.4-2.3L64.6,50.5z"/>
        <path fill="#37414B" d="M82.9,98.2h-7c-0.4,0-0.8-0.3-0.8-0.8s0.3-0.8,0.8-0.8h7c0.4,0,0.8,0.3,0.8,0.8S83.4,98.2,82.9,98.2z"/>
        <path fill="#FFFFFF" d="M72.2,71l7.3-7.3l7.3,7.3c4.3,4,4.6,10.7,0.6,15.1c-4,4.3-10.7,4.6-15.1,0.6c-4.3-4-4.6-10.7-0.6-15.1
			C71.8,71.4,72,71.2,72.2,71z"/>
        <path fill="#37414B" d="M79.4,90.3c-6.3,0-11.4-5.1-11.4-11.4c0-3.2,1.3-6.2,3.7-8.4l7.2-7.3c0.3-0.3,0.8-0.3,1.1,0l7.3,7.3
			c4.6,4.3,4.9,11.5,0.6,16.1C85.6,89,82.6,90.3,79.4,90.3z M79.4,64.8l-6.7,6.7l0,0c-2,1.9-3.2,4.5-3.2,7.3c0,5.5,4.4,9.9,9.9,9.9
			s9.9-4.4,9.9-9.9c0-2.8-1.1-5.4-3.2-7.3L79.4,64.8z M72.2,71L72.2,71z"/>
        <rect fill="none" width="120" height="120"/>
	</g>
</g>
</symbol><symbol id="time" viewBox="0 0 120 120">
<title>time</title>
    <g id="Layer_2">
    <g id="Desktop-Step_4">
        <path fill="#E0E3E5" d="M90.5,99.6H31.7c-2.6,0-4.7-2.1-4.7-4.7v-77c0-2.6,2.1-4.7,4.7-4.7h56c2.6,0,4.7,2.1,4.7,4.7v57"/>
        <path fill="#37414B" d="M27.3,58.2c-0.4,0-0.8-0.3-0.8-0.8l0,0V18.3c0-3,2.4-5.4,5.4-5.4c0,0,0,0,0,0h55.8c3,0,5.4,2.4,5.4,5.4v29
            c0,0.4-0.3,0.8-0.8,0.8s-0.8-0.3-0.8-0.8v-29c0-2.2-1.8-3.9-3.9-3.9H32c-2.2,0-3.9,1.8-3.9,3.9v39.2
            C28.1,57.9,27.7,58.2,27.3,58.2C27.3,58.2,27.3,58.2,27.3,58.2z"/>
        <path fill="#37414B" d="M81.3,100.2H32c-3,0-5.4-2.4-5.4-5.4v-24c0-0.4,0.3-0.8,0.8-0.8s0.8,0.3,0.8,0.8v24c0,2.2,1.8,3.9,3.9,3.9
            h49.3c0.4,0,0.8,0.3,0.8,0.8S81.8,100.2,81.3,100.2z"/>
        <path fill="#FFFFFF" d="M97.7,98.5l-1.1,1.6c-0.7,1.1-1.1,2.4-1.1,3.7v2.3c0,0.6-0.5,1.1-1.1,1.1H81.3c-0.6,0-1.1-0.5-1.1-1.1
            v-2.3c0-1.3-0.4-2.6-1.1-3.7L78,98.5"/>
        <path fill="#37414C" d="M94.5,107.9H81.3c-1,0-1.8-0.8-1.8-1.8v-2.3c0-1.2-0.4-2.3-1-3.2l-1.1-1.6c-0.2-0.3-0.1-0.8,0.2-1
            s0.8-0.1,1,0.2l1.1,1.6c0.8,1.2,1.3,2.6,1.3,4.1v2.3c0,0.2,0.2,0.3,0.3,0.3h13.1c0.2,0,0.3-0.2,0.3-0.3v-2.3
            c0-1.4,0.4-2.9,1.2-4.1l1.1-1.6c0.2-0.3,0.7-0.4,1-0.2s0.4,0.7,0.2,1l-1.1,1.6c-0.6,1-1,2.1-1,3.2v2.3
            C96.3,107,95.5,107.9,94.5,107.9z"/>
        <path fill="#FFFFFF" d="M97.7,67.8l-1.1-1.6c-0.7-1.1-1.1-2.4-1.1-3.7v-2.3c0-0.6-0.5-1.1-1.1-1.1H81.3c-0.6,0-1.1,0.5-1.1,1.1
            v2.3c0,1.3-0.4,2.6-1.1,3.6L78,67.8"/>
        <path fill="#37414C" d="M97.7,68.6c-0.2,0-0.5-0.1-0.6-0.3L96,66.6c-0.8-1.2-1.2-2.6-1.2-4.1v-2.3c0-0.2-0.2-0.3-0.3-0.3H81.3
            c-0.2,0-0.3,0.2-0.3,0.3v2.3c0,1.4-0.4,2.9-1.2,4.1l-1.1,1.6c-0.2,0.3-0.7,0.4-1,0.2s-0.4-0.7-0.2-1l1.1-1.6c0.6-1,1-2.1,1-3.2
            v-2.3c0-1,0.8-1.8,1.8-1.8h13.1c1,0,1.8,0.8,1.8,1.8v2.3c0,1.2,0.4,2.3,1,3.2l1.1,1.6c0.2,0.3,0.1,0.8-0.2,1
            C98.1,68.5,97.9,68.6,97.7,68.6L97.7,68.6z"/>
        <path fill="#84D1F5" d="M79.1,67.8h17.5c2.4,0,4.4,2,4.4,4.4v21.9c0,2.4-2,4.4-4.4,4.4H79.1c-2.4,0-4.4-2-4.4-4.4V72.2
            C74.7,69.8,76.7,67.8,79.1,67.8z"/>
        <path fill="#37414C" d="M96.7,99.2H79.1c-2.8,0-5.1-2.3-5.1-5.1V72.2c0-2.8,2.3-5.1,5.1-5.1h17.5c2.8,0,5.1,2.3,5.1,5.1v21.9
            C101.8,96.9,99.5,99.2,96.7,99.2z M79.1,68.6c-2,0-3.6,1.6-3.6,3.6v21.9c0,2,1.6,3.6,3.6,3.6h17.5c2,0,3.6-1.6,3.6-3.6V72.2
            c0-2-1.6-3.6-3.6-3.6H79.1z"/>
        <path fill="#FFFFFF" d="M87.9,87.8l7-6.9c1.7-1.6,1.7-4.3,0-6c0,0,0,0,0,0l0,0c-1.6-1.7-4.3-1.7-6,0c0,0,0,0,0,0l-1,1l-1-1
            c-1.6-1.7-4.3-1.7-6,0c0,0,0,0,0,0l0,0c-1.7,1.6-1.7,4.3,0,6c0,0,0,0,0,0l4.6,4.6"/>
        <path fill="#37414C" d="M87.9,88.5c-0.4,0-0.7-0.3-0.7-0.8c0-0.2,0.1-0.4,0.2-0.5l7-7c1.4-1.4,1.4-3.5,0-4.9s-3.5-1.4-4.9,0l-1,1
            c-0.3,0.3-0.8,0.3-1.1,0l-1-1c-1.4-1.4-3.5-1.4-4.9,0s-1.4,3.5,0,4.9l4.6,4.6c0.3,0.3,0.3,0.8,0,1.1c-0.3,0.3-0.8,0.3-1.1,0l0,0
            l-4.6-4.6c-1.7-2.2-1.2-5.3,1-7c1.8-1.3,4.2-1.3,6,0l0.5,0.5l0.5-0.5c2.2-1.7,5.3-1.2,7,1c1.3,1.8,1.3,4.2,0,6l-7,7
            C88.2,88.4,88,88.5,87.9,88.5z"/>
        <path fill="#37414C" d="M91.2,93.6h-6.6c-0.4,0-0.8-0.3-0.8-0.8s0.3-0.8,0.8-0.8h6.6c0.4,0,0.8,0.3,0.8,0.8S91.6,93.6,91.2,93.6z"/>
        <path fill="#FFFFFF" d="M76.2,32.7c0.1-2.5,2.3-4.5,4.8-4.3s4.5,2.3,4.3,4.8s-2.3,4.5-4.8,4.3c0,0,0,0,0,0
            C78,37.4,76.1,35.3,76.2,32.7C76.2,32.7,76.2,32.7,76.2,32.7z"/>
        <path fill="#37414B" d="M80.8,38.3h-0.3c-2.9-0.1-5.2-2.5-5.2-5.4c0.1-2.9,2.5-5.2,5.4-5.2c2.9,0.1,5.2,2.5,5.2,5.4
            C85.9,35.9,83.6,38.2,80.8,38.3z M80.8,29.1c-2,0-3.7,1.6-3.8,3.6l0,0c-0.1,2.1,1.5,3.9,3.6,4c2.1,0.1,3.9-1.5,4-3.6
            c0.1-2.1-1.5-3.9-3.6-4c0,0,0,0,0,0L80.8,29.1z M76.2,32.7L76.2,32.7z"/>
        <path fill="#FFFFFF" d="M44.5,49.9c0.1-2.5,2.3-4.5,4.8-4.4c2.5,0.1,4.5,2.3,4.4,4.8c-0.1,2.5-2.3,4.5-4.8,4.4c0,0,0,0,0,0
            C46.4,54.6,44.4,52.5,44.5,49.9z"/>
        <path fill="#37414B" d="M49.1,55.5h-0.3c-2.9-0.1-5.2-2.5-5.2-5.4c0.1-2.9,2.5-5.2,5.4-5.2s5.2,2.5,5.2,5.4
            C54.2,53.1,51.9,55.4,49.1,55.5z M49.1,46.3c-2,0-3.7,1.6-3.8,3.7c-0.1,2.1,1.5,3.9,3.6,4c0,0,0,0,0,0c2.1,0,3.8-1.7,3.8-3.8
            c0-2-1.5-3.6-3.4-3.8L49.1,46.3z"/>
        <path fill="#FFFFFF" d="M60.6,63.3c0.1-2.5,2.3-4.5,4.8-4.4c2.5,0.1,4.5,2.3,4.4,4.8c-0.1,2.5-2.2,4.5-4.8,4.4
            C62.5,68,60.5,65.8,60.6,63.3L60.6,63.3z"/>
        <path fill="#37414B" d="M65.2,68.8h-0.3c-2.9-0.1-5.2-2.6-5.1-5.6l0,0c0.1-2.9,2.6-5.2,5.6-5.1c2.9,0.1,5.2,2.6,5.1,5.6
            C70.4,66.6,68,68.9,65.2,68.8L65.2,68.8z M65.2,59.7c-2,0-3.7,1.6-3.8,3.6l0,0c-0.1,2.1,1.5,3.9,3.6,4s3.9-1.5,4-3.6
            c0.1-2.1-1.5-3.9-3.6-4c0,0,0,0,0,0H65.2z M60.6,63.3L60.6,63.3z"/>
        <path fill="#FFFFFF" d="M35.9,82.4c0.1-2.5,2.3-4.5,4.8-4.4c2.5,0.1,4.5,2.3,4.4,4.8c-0.1,2.5-2.3,4.5-4.8,4.4c0,0,0,0,0,0
            C37.7,87.1,35.8,84.9,35.9,82.4z"/>
        <path fill="#37414B" d="M40.5,88h-0.3c-2.9-0.1-5.2-2.5-5.2-5.4s2.5-5.2,5.4-5.2c2.9,0.1,5.2,2.5,5.2,5.4
            C45.6,85.7,43.3,87.9,40.5,88z M40.5,78.8c-2,0-3.7,1.6-3.8,3.6l0,0c0,1,0.3,2,1,2.8c1.5,1.5,3.9,1.5,5.4-0.1
            c1.4-1.4,1.5-3.6,0.3-5.1c-0.7-0.8-1.6-1.2-2.6-1.3H40.5z M35.9,82.5L35.9,82.5z"/>
        <path fill="#37414B" d="M41.4,78.9h-0.2c-0.4-0.1-0.6-0.5-0.5-0.9l6-23.7c0.1-0.4,0.5-0.7,0.9-0.6c0.4,0.1,0.7,0.5,0.6,0.9
            c0,0,0,0.1,0,0.1l-6,23.7C42.1,78.7,41.8,78.9,41.4,78.9z"/>
        <path fill="#37414B" d="M62,61c-0.2,0-0.3-0.1-0.5-0.2l-9.1-7.5c-0.3-0.3-0.4-0.8-0.1-1.1c0.3-0.3,0.8-0.4,1.1-0.1l0,0l9.1,7.5
            c0.3,0.3,0.4,0.7,0.1,1.1C62.5,60.9,62.2,61,62,61z"/>
        <path fill="#37414B" d="M67.8,60.5c-0.4,0-0.7-0.3-0.7-0.8c0-0.1,0-0.2,0.1-0.3l11-22.7c0.2-0.4,0.6-0.5,1-0.3
            c0.4,0.2,0.5,0.6,0.3,1l-11,22.7C68.4,60.4,68.1,60.5,67.8,60.5z"/>
        <path fill="#37414B" d="M59.3,24.6H37.5c-0.4,0-0.8-0.3-0.8-0.8s0.3-0.8,0.8-0.8h21.9c0.4,0,0.8,0.3,0.8,0.8S59.7,24.6,59.3,24.6z
            "/>
        <path fill="#37414B" d="M59.3,35.2H37.5c-0.4,0-0.8-0.3-0.8-0.8s0.3-0.8,0.8-0.8h21.9c0.4,0,0.8,0.3,0.8,0.8S59.7,35.2,59.3,35.2z
            "/>
        <rect fill="none" width="120" height="120"/>
    </g>
</g>
</symbol></svg>