<?xml version="1.0" encoding="UTF-8"?><!DOCTYPE svg PUBLIC "-//W3C//DTD SVG 1.1//EN" "http://www.w3.org/Graphics/SVG/1.1/DTD/svg11.dtd"><svg xmlns="http://www.w3.org/2000/svg" xmlns:xlink="http://www.w3.org/1999/xlink"><defs>
        <style>.cls-1{fill:#fff;}</style>
    </defs><symbol id="arrow-down" viewBox="0 0 24 24">
<style type="text/css">
	.st0{fill:#00aaff;}
	.st1{fill:none;}
</style>
    <path class="st0" d="M16.5900002,8.5899849l-4.5899992,4.5799999L7.4099998,8.5899849L6,9.9999847l6,6l6-6L16.5900002,8.5899849z"/>
    <path class="st1" d="M0.0000001,23.9999847v-24h24v24H0.0000001z"/>
</symbol><symbol id="arrow-up" viewBox="0 0 24 24">
<style type="text/css">
	.st0{fill:#00aaff;}
	.st1{fill:none;}
</style>
    <path class="st0" d="M7.4099998,15.4099846l4.5899992-4.5799999l4.5900011,4.5799999L18,13.9999847l-6-6l-6,6L7.4099998,15.4099846z  "/>
    <path class="st1" d="M24-0.0000151v24h-24v-24H24z"/>
</symbol><symbol id="icon-checked" viewBox="0 0 11.06 8.68">
    
    <title>Asset 3</title>
    <g id="Layer_2" data-name="Layer 2">
        <g id="&#x421;&#x43B;&#x43E;&#x439;_1" data-name="&#x421;&#x43B;&#x43E;&#x439; 1">
            <polygon class="cls-1" points="9.73 0 3.71 6.03 1.32 3.65 0 4.97 3.71 8.68 11.06 1.32 9.73 0"/>
        </g>
    </g>
</symbol><symbol id="icon-swiper-arrow" viewBox="0 0 320 512"><path fill="currentColor" d="M34.52 239.03L228.87 44.69c9.37-9.37 24.57-9.37 33.94 0l22.67 22.67c9.36 9.36 9.37 24.52.04 33.9L131.49 256l154.02 154.75c9.34 9.38 9.32 24.54-.04 33.9l-22.67 22.67c-9.37 9.37-24.57 9.37-33.94 0L34.52 272.97c-9.37-9.37-9.37-24.57 0-33.94z"/></symbol><symbol id="search" viewBox="0 0 24 24">
<style type="text/css">
	.st0{fill:#c3c8cd;}
	.st1{fill:none;}
</style>
    <g>
	<path class="st0" d="M15.5,14h-0.79l-0.2799997-0.2700005C15.4099998,12.5900002,16,11.1099997,16,9.5   C16,5.9099998,13.0900002,3,9.5,3S3,5.9099998,3,9.5S5.9099998,16,9.5,16c1.6099997,0,3.0900002-0.5900002,4.2299995-1.5699997   L14,14.71v0.79l5,4.9899998L20.4899998,19L15.5,14z M9.5,14C7.0100002,14,5,11.9899998,5,9.5S7.0100002,5,9.5,5   S14,7.0100002,14,9.5S11.9899998,14,9.5,14z"/>
        <path class="st1" d="M0,0h24v24H0V0z"/>
</g>
</symbol><symbol id="tooltip" viewBox="0 0 24 24">
<style type="text/css">
	.st0{fill:none;}
	.st1{fill:#00aaff;}
</style>
    <path class="st0" d="M0-0.000015h24v24H0V-0.000015z"/>
    <path class="st1" d="M11,6.999985h2v2h-2V6.999985z M11,10.999986h2v5.999999h-2V10.999986z M12,1.999985c-5.52,0-10,4.48-10,10  s4.48,9.999999,10,9.999999s10-4.48,10-9.999999S17.52,1.999985,12,1.999985z M12,19.999985c-4.41,0-8-3.59-8-7.999999s3.59-8,8-8  s8,3.59,8,8S16.41,19.999985,12,19.999985z"/>
</symbol><symbol id="boot" viewBox="0 0 120 120">
<title>boot</title>
    <g id="Layer_2">
    <g id="Desktop-Step_3">
        <path fill="#FFFFFF" d="M101.8,73.3l-9.4-3.8c-2.2-1-4-2.8-5-5c-6.6-19.9-11.3-34-11.3-34c-0.1-0.3-0.4-0.5-0.7-0.5
            c-0.4,0-9.3-0.4-13.2,4.8c-1.8-1.6-3.3-3.6-4.4-5.8c-0.4-1-0.4-2.1-0.1-3.1v-0.3c0.1-1.5,0.2-3.3-1-4.8c-1.1-1.2-2.8-1.8-5.4-1.8
            h-0.3c-9.8,0-18.1,5.3-24,15.3c-0.1,0.1-0.1,0.2-0.2,0.3L25.8,35c-2.6,1.3-5.6,2.8-6.7,3.5c-1.9,1.7-2.5,4.4-1.4,6.7
            c2.3,4.2,9,14.5,20.5,19.8c2.6,1.2,8.9,5.4,8.9,5.4c2.5,2,4.7,4.3,6.8,6.7l1.3,1.7c0.2,0.3,0.7,0.4,1,0.2c2.2,2.8,3.9,5.4,5.5,7.4
            c-0.2,0.3-0.2,0.8,0.1,1.1l1.7,1.4c3.1,2.5,6.7,4.2,10.6,4.8l2.2,0.4c4.3,0.5,8.5,0.7,12.8,0.6h2.2c16.7,0,20.4-10.6,20.4-13.2
            C111.8,75.8,102.8,73.5,101.8,73.3z M43.2,54.2L43.2,54.2L43.2,54.2z"/>
        <polygon fill="#84D1F5" points="47.2,41.5 45.7,47.3 42.8,53.7 42.8,55.6 47.8,60.5 52.5,62.5 57.2,65.4 61.8,68.9 65.7,74.7
            67,77 68.8,75.8 68.2,62.1 64,51.7 52.8,43.3"/>
        <path fill="#E0E3E5" d="M108.6,77c-9.9,14.3-35.4,9.1-39.9,1.7c-2.5-4-6.3-11.9-17.4-16.9S26.9,35,26.9,35
            c-2.7,1.4-6.8,3.4-8.1,4.2c-1.6,1.5-2.1,3.8-1.2,5.8c3.3,5.9,10.1,15,20.5,19.8c2.7,1.3,9.3,5.6,9.3,5.6c2.6,2.1,4.9,4.4,7,6.9
            l1.4,1.7c2.6,3.4,4.6,6.5,6.6,8.7l1.7,1.5c3,2.4,6.6,4.1,10.4,4.7l2.2,0.4C81,94.8,85.4,95,89.7,95h2.2
            c16.4,0,20.5-11.8,20.5-14.4L108.6,77z"/>
        <path fill="#37414C" d="M91.9,95.4h-2.2c-4.3,0.1-8.7-0.2-13-0.6l-2.3-0.4c-3.9-0.7-7.7-2.4-10.8-4.9L61.9,88
            c-0.3-0.3-0.3-0.8-0.1-1.1c0.3-0.3,0.8-0.3,1.1-0.1l1.7,1.5c2.9,2.3,6.4,3.9,10.1,4.5l2.2,0.4c4.3,0.5,8.5,0.7,12.8,0.6h2.2
            c15.7,0,19.2-9.5,19.2-11.9c0-4.1-6.7-6.4-9-6.9h-0.1l-9.6-3.9c-2.7-1.2-4.8-3.3-6-6C80.4,47.1,76,33.7,75.1,31
            c-2,0-9.4,0.3-12,4.9c-0.1,0.2-0.3,0.3-0.5,0.4c-0.2,0-0.4,0-0.6-0.2c-2.3-1.9-4.2-4.3-5.6-7c-0.5-1.3-0.6-2.7-0.3-4v-0.2
            c0.1-1.4,0.2-2.7-0.7-3.8s-2.1-1.3-4.3-1.3h-0.3c-9.4,0-17.4,5.1-23.1,14.9l-0.1,0.1c0,0.1-0.1,0.2-0.1,0.3
            c-0.1,0.1-0.2,0.3-0.3,0.3l-1.4,0.7c-2.5,1.2-5.6,2.8-6.6,3.5c-1.3,1.2-1.7,3.2-0.9,4.8c2.3,4.1,8.8,14.3,20.2,19.4
            c2.8,1.3,9.1,5.4,9.4,5.6c2.6,2.1,5.1,4.5,7.3,7.1l1.4,1.7c0.3,0.3,0.2,0.8-0.1,1.1c-0.3,0.3-0.8,0.2-1.1-0.1c0,0,0,0,0,0
            l-1.4-1.7c-2.1-2.5-4.4-4.8-6.9-6.8c0,0-6.5-4.3-9.1-5.5c-11.7-5.3-18.5-15.8-20.9-20.1c-1.1-2.3-0.5-5.1,1.4-6.8
            c1.1-0.7,4.1-2.2,6.8-3.6l1.2-0.6c0-0.1,0.1-0.2,0.2-0.3c6-10.2,14.5-15.6,24.4-15.6h0.3c2.6,0,4.3,0.6,5.4,1.8
            c1.3,1.5,1.2,3.3,1.1,4.9v0.3c-0.3,1.1-0.2,2.2,0.1,3.2c1.1,2.3,2.6,4.3,4.5,5.9c3.8-5.3,13-4.9,13.4-4.9c0.3,0,0.6,0.2,0.7,0.5
            c0,0,4.8,14.4,11.5,34.6c1,2.3,2.9,4.1,5.2,5.1l9.5,3.9c0.9,0.2,10.1,2.5,10.1,8.4C112.6,84.7,108.9,95.4,91.9,95.4z M27.6,34.8
            L27.6,34.8z"/>
        <path fill="#37414C" d="M75.5,41.7c-9.4,0-13.5-5.5-13.7-5.7c-0.2-0.4,0-0.8,0.3-1c0.3-0.1,0.6-0.1,0.8,0.1l0,0
            c0.2,0.3,4.8,6.4,15.8,4.9c0.4-0.1,0.8,0.2,0.8,0.6c0.1,0.4-0.2,0.8-0.6,0.8C77.8,41.6,76.7,41.7,75.5,41.7z"/>
        <path fill="#37414C" d="M88.8,87h-0.9c-8.5-0.2-17.2-3.8-19.9-8.1c-0.2-0.4-0.5-0.8-0.8-1.3c-2.4-4.1-6.5-11-16.3-15.3
            C46,60.1,40.3,54.6,33.7,46c-0.2-0.3-0.1-0.8,0.2-1c0.3-0.2,0.7-0.2,1,0.1c6.3,8.3,12.1,13.7,16.6,15.8c10.3,4.6,14.5,11.7,17,16
            c0.3,0.4,0.5,0.9,0.8,1.3c2.1,3.4,9.6,7.1,18.6,7.4c4.9,0.1,13.9-0.8,19.2-8.4c0.2-0.3,0.7-0.4,1-0.2c0.3,0.2,0.4,0.7,0.2,1
            C103,85.7,94.1,87,88.8,87z"/>
        <path fill="#37414C" d="M30.4,40.9c-0.2,0-0.5-0.1-0.6-0.3c-2.2-3.2-3.6-5.4-3.6-5.5c-0.2-0.4-0.1-0.8,0.3-1
            c0.3-0.2,0.8-0.1,1,0.2c0,0,1.4,2.3,3.5,5.4c0.2,0.3,0.2,0.8-0.2,1C30.7,40.8,30.5,40.9,30.4,40.9L30.4,40.9z"/>
        <path fill="#37414C" d="M41.9,54.7c-0.4,0-0.8-0.3-0.8-0.7c0-0.2,0.1-0.4,0.2-0.5c8.4-9.1,5.6-33.8,5.6-34c0-0.4,0.3-0.8,0.7-0.8
            c0.4,0,0.8,0.2,0.8,0.6c0.1,1,2.9,25.6-6,35.3C42.3,54.7,42.1,54.7,41.9,54.7z"/>
        <path fill="#37414C" d="M68.6,79.2L68.6,79.2c-0.5,0-0.8-0.4-0.8-0.8c0-0.1,1.4-12.3-1.9-21.7c-3.2-9.2-18.7-15.1-18.8-15.2
            c-0.4-0.1-0.6-0.6-0.4-1s0.6-0.6,1-0.4l0,0c0.7,0.3,16.4,6.2,19.7,16.1c3.3,9.7,2,21.8,1.9,22.3C69.3,78.9,69,79.2,68.6,79.2z"/>
        <path fill="#37414C" d="M88.3,79.2c-0.4,0-0.8-0.3-0.8-0.8s0.3-0.8,0.8-0.8c4.6-0.1,9-1.3,13-3.5c0.4-0.2,0.8-0.1,1,0.3
            s0.1,0.8-0.3,1C97.9,77.8,93.1,79.1,88.3,79.2z"/>
        <path fill="#84D1F5" d="M9.4,70.5C9.7,83.8,20.7,94.4,34,94.1c12.9-0.3,23.3-10.7,23.6-23.6"/>
        <path fill="#FFFFFF" d="M30,69.2c0-1.9,7-1.9,7,0c-0.1,1.9-1.8,3.4-3.8,3.2C31.5,72.3,30.1,71,30,69.2z"/>
        <path fill="#FFFFFF" d="M30,69.7h7c0,1.9-1.6,3.5-3.5,3.5l0,0"/>
        <path fill="#FFFFFF" d="M15.8,70.8c0,9.8,7.9,17.7,17.7,17.7s17.7-7.9,17.7-17.7"/>
        <path fill="#37414C" d="M33.5,89.2c-10.2,0-18.4-8.2-18.4-18.4c0-0.4,0.3-0.8,0.8-0.8s0.8,0.3,0.8,0.8c0,9.4,7.6,16.9,16.9,16.9
            s16.9-7.6,16.9-16.9l0,0c0-0.4,0.3-0.8,0.8-0.8s0.8,0.3,0.8,0.8C51.9,80.9,43.7,89.2,33.5,89.2z"/>
        <path fill="#37414C" d="M33.5,74.8c-2.3,0-4.2-1.9-4.3-4.3c0-0.4,0.3-0.8,0.8-0.8s0.8,0.3,0.8,0.8c0,1.5,1.2,2.8,2.8,2.8
            s2.8-1.2,2.8-2.8c0-0.4,0.3-0.8,0.8-0.8s0.8,0.3,0.8,0.8C37.8,72.9,35.9,74.8,33.5,74.8z"/>
        <line fill="none" x1="57.6" y1="70.5" x2="37" y2="70.5"/>
        <path fill="#37414C" d="M57.6,71.3H37c-0.4,0-0.8-0.3-0.8-0.8s0.3-0.8,0.8-0.8h20.6c0.4,0,0.8,0.3,0.8,0.8S58,71.3,57.6,71.3z"/>
        <line fill="none" x1="9.4" y1="70.5" x2="30" y2="70.5"/>
        <path fill="#37414C" d="M30,71.3H9.4c-0.4,0-0.8-0.3-0.8-0.8s0.3-0.8,0.8-0.8H30c0.4,0,0.8,0.3,0.8,0.8S30.4,71.3,30,71.3z"/>
        <line fill="none" x1="33.5" y1="88.5" x2="33.5" y2="74"/>
        <path fill="#37414C" d="M33.5,89.2c-0.4,0-0.8-0.3-0.8-0.8V74c0-0.4,0.3-0.8,0.8-0.8s0.8,0.3,0.8,0.8v14.5
            C34.3,88.9,33.9,89.2,33.5,89.2z"/>
        <line fill="none" x1="35.5" y1="73.5" x2="45.7" y2="83.7"/>
        <path fill="#37414C" d="M45.7,84.4c-0.2,0-0.4-0.1-0.5-0.2L35,74c-0.2-0.4,0-0.8,0.4-1c0.2-0.1,0.4-0.1,0.6,0l10.2,10.1
            c0.3,0.3,0.3,0.8,0,1.1C46.1,84.3,45.9,84.4,45.7,84.4z"/>
        <line fill="none" x1="31.6" y1="73.5" x2="21.7" y2="84"/>
        <path fill="#37414C" d="M21.7,84.7c-0.4,0-0.8-0.3-0.8-0.7c0-0.2,0.1-0.4,0.2-0.5L31.1,73c0.2-0.3,0.7-0.4,1-0.2
            c0.3,0.2,0.4,0.7,0.2,1c0,0.1-0.1,0.1-0.2,0.2l-9.9,10.5C22.1,84.7,21.9,84.7,21.7,84.7z"/>
        <path fill="#37414C" d="M33.5,95.3c-6.3,0-12.3-2.4-16.9-6.6c-0.3-0.2-0.4-0.7-0.2-1c0.2-0.3,0.7-0.4,1-0.2c0.1,0,0.1,0.1,0.1,0.1
            c9.4,8.8,24.2,8.2,33-1.2c4-4.3,6.2-10,6.2-15.9c0-0.4,0.3-0.8,0.8-0.8s0.8,0.3,0.8,0.8C58.3,84.2,47.2,95.3,33.5,95.3z"/>
        <path fill="#37414C" d="M10.4,77.8c-0.3,0-0.6-0.2-0.7-0.6C9,75,8.7,72.8,8.7,70.5c0-0.4,0.3-0.8,0.8-0.8s0.8,0.3,0.8,0.8
            c0,2.1,0.3,4.3,0.9,6.3c0.1,0.4-0.1,0.8-0.5,0.9c0,0,0,0,0,0L10.4,77.8z"/>
        <path fill="#FFFFFF" stroke="#37414C" stroke-width="1.5" stroke-linecap="round" stroke-linejoin="round" d="M15.8,70.8"/>
        <path fill="#37414B" d="M119.3,95.4H14.1c-0.4,0-0.8-0.3-0.8-0.8s0.3-0.8,0.8-0.8l0,0h105.2c0.4,0,0.8,0.3,0.8,0.8
            S119.7,95.4,119.3,95.4L119.3,95.4z"/>
        <path fill="#37414B" d="M7.8,95.4H0.8c-0.4,0-0.8-0.3-0.8-0.8s0.3-0.8,0.8-0.8h7.1c0.4,0,0.8,0.3,0.8,0.8S8.2,95.4,7.8,95.4z"/>
        <path fill="#FFFFFF" d="M61.8,63.5h-0.1C61.2,63.4,61,63,61,62.6c1-6.2-10.6-12.4-10.7-12.5c-0.4-0.2-0.5-0.6-0.3-1
            c0.2-0.4,0.6-0.5,1-0.3l0,0c0.5,0.3,12.6,6.7,11.5,14C62.5,63.2,62.1,63.5,61.8,63.5z"/>
        <rect fill="none" width="120" height="120"/>
    </g>
</g>
</symbol><symbol id="info" viewBox="0 0 120 120">
<title>info</title>
    <g id="Layer_2">
    <g id="Desktop-Step_2">
        <path fill="#FFFFFF" d="M100.2,81.6l-71.3-0.8c-1.9,0-3.4-1.5-3.4-3.4V19.2c0-1.9,1.5-3.4,3.4-3.4h71.3c1.9,0,3.4,1.5,3.4,3.4v59
            C103.6,80.1,102.1,81.6,100.2,81.6L100.2,81.6z"/>
        <path fill="#84D1F5" d="M29.2,15.8h70.7c2.1,0,3.8,1.7,3.8,3.8l0,0v3.8l0,0H25.5l0,0v-3.8C25.5,17.4,27.2,15.8,29.2,15.8z"/>
        <path fill="#37414B" d="M101.2,82.3H86.5c-0.4,0-0.8-0.3-0.8-0.8s0.3-0.8,0.8-0.8h14.7c1-0.1,1.8-0.9,1.7-1.9V18.5
            c0.1-1-0.7-1.9-1.7-2H27.9c-1,0.1-1.8,0.9-1.7,2v51.1c0,0.4-0.3,0.8-0.8,0.8s-0.8-0.3-0.8-0.8V18.5c-0.1-1.8,1.4-3.4,3.2-3.5h73.3
            c1.8,0.1,3.3,1.6,3.2,3.5v60.4C104.5,80.7,103,82.3,101.2,82.3z"/>
        <rect x="25.4" y="22.9" fill="#37414B" width="78.2" height="1.5"/>
        <rect x="77.1" y="55.5" fill="#E0E3E5" width="15.7" height="15.8"/>
        <path fill="#37414B" d="M84.7,67.6L84.7,67.6c-0.2,0-0.5-0.1-0.6-0.3l-3.7-5c-0.2-0.3-0.2-0.8,0.2-1c0.3-0.2,0.8-0.2,1,0.2l0,0
            l3.1,4.2L93,55.3c0.3-0.3,0.7-0.4,1.1-0.1c0.3,0.3,0.4,0.7,0.1,1.1l-8.9,11C85.2,67.5,85,67.6,84.7,67.6z"/>
        <path fill="#37414B" d="M92.8,72.1H77.1c-0.4,0-0.8-0.3-0.8-0.8V55.5c0-0.4,0.3-0.8,0.8-0.8h9.6c0.4,0,0.8,0.3,0.8,0.8
            s-0.3,0.8-0.8,0.8h-8.9v14.3h14.2v-5.8c0-0.4,0.3-0.8,0.8-0.8s0.8,0.3,0.8,0.8v6.6C93.6,71.7,93.3,72.1,92.8,72.1z"/>
        <rect x="77.1" y="31.9" fill="#E0E3E5" width="15.7" height="15.8"/>
        <path fill="#37414B" d="M84.7,43.9L84.7,43.9c-0.2,0-0.5-0.1-0.6-0.3l-3.7-5c-0.2-0.3-0.2-0.8,0.2-1c0.3-0.2,0.8-0.2,1,0.2
            l3.1,4.2L93,31.7c0.3-0.3,0.7-0.4,1.1-0.1c0.3,0.3,0.4,0.7,0.1,1.1l-8.9,11C85.2,43.8,85,43.9,84.7,43.9z"/>
        <path fill="#37414B" d="M92.8,48.4H77.1c-0.4,0-0.8-0.3-0.8-0.8V31.9c0-0.4,0.3-0.8,0.8-0.8h9.6c0.4,0,0.8,0.3,0.8,0.8
            c0,0.4-0.3,0.8-0.8,0.8h-8.9v14.3h14.2v-5.8c0-0.4,0.3-0.8,0.8-0.8s0.8,0.3,0.8,0.8v6.6C93.6,48.1,93.3,48.4,92.8,48.4z"/>
        <path fill="#E1E4E6" d="M12.3,78.2C4.3,63.4,9.8,45,24.5,37.1s33.1-2.5,41.1,12.3s2.5,33.1-12.3,41.1c0,0-0.1,0-0.1,0
            C38.5,98.3,20.2,92.8,12.3,78.2z"/>
        <path fill="#37414B" d="M22.4,89.9c-0.1,0-0.3,0-0.4-0.1C7.6,80.3,3.7,61.1,13.1,46.7c5.4-8.2,14.5-13.4,24.3-13.9
            c0.4,0,0.8,0.3,0.8,0.7s-0.3,0.8-0.7,0.8c-16.3,0.8-28.9,14.7-28,31c0.5,9.4,5.4,18,13.3,23.2c0.3,0.2,0.4,0.7,0.2,1
            C22.8,89.8,22.6,89.9,22.4,89.9z"/>
        <path fill="#37414B" d="M38.9,94.8c-0.9,0-1.7,0-2.6-0.1c-0.4,0-0.7-0.4-0.7-0.8c0,0,0,0,0,0c0-0.4,0.4-0.7,0.8-0.7
            c5.7,0.5,11.4-0.7,16.5-3.4c14.4-7.7,19.8-25.6,12.1-40c-2.7-5.1-6.9-9.3-11.9-12c-0.4-0.2-0.5-0.6-0.3-1c0.2-0.4,0.6-0.5,1-0.3
            c0,0,0,0,0.1,0c15.1,8.2,20.6,27.1,12.4,42.2c-5.3,9.7-15.4,15.9-26.5,16.2L38.9,94.8z"/>
        <path fill="#37414B" d="M67.4,89.7c-0.2,0-0.4-0.1-0.5-0.2l-5.6-4.9c-0.3-0.3-0.3-0.8-0.1-1.1c0.3-0.3,0.8-0.3,1.1-0.1l0,0
            l5.6,4.9c0.3,0.3,0.3,0.7,0.1,1.1C67.8,89.6,67.6,89.7,67.4,89.7z"/>
        <path fill="#84D1F5" d="M99.3,117.1L99.3,117.1c-2.3,2.6-6.4,2.9-9,0.5c0,0,0,0,0,0L67.9,97.8c-2.6-2.3-2.8-6.2-0.5-8.8l0,0
            c2.3-2.6,6.4-2.9,9-0.5c0,0,0,0,0,0l22.4,19.8C101.4,110.6,101.6,114.5,99.3,117.1z"/>
        <path fill="#37414B" d="M94.6,120c-1.7,0-3.4-0.6-4.7-1.8L67.4,98.4c-2.9-2.5-3.2-7-0.6-9.9c0,0,0,0,0,0c2.6-2.9,7.1-3.2,10-0.6
            l22.5,19.9c2.9,2.5,3.2,7,0.6,9.9c0,0,0,0,0,0C98.6,119.1,96.6,120,94.6,120z M72.2,87.6c-1.6,0-3.1,0.7-4.2,1.9
            c-2,2.3-1.8,5.8,0.5,7.8l22.4,19.8c2.3,2,5.9,1.8,7.9-0.5l0,0c2-2.3,1.8-5.8-0.5-7.8L75.9,89C74.8,88.1,73.5,87.6,72.2,87.6z"/>
    
        <ellipse transform="matrix(0.9982 -6.070012e-02 6.070012e-02 0.9982 -3.7993 2.4843)" fill="#FFFFFF" cx="39" cy="63.8" rx="22.9" ry="22.9"/>
        <path fill="#FFFFFF" d="M84.9,104.6c-0.2,0-0.4-0.1-0.5-0.2l-10.9-10c-0.3-0.3-0.3-0.8,0-1.1c0.3-0.2,0.7-0.3,1-0.1l10.9,10
            c0.3,0.3,0.3,0.8,0,1.1C85.3,104.5,85.1,104.6,84.9,104.6L84.9,104.6z"/>
        <path fill="#37414B" d="M39,87.2c-12.4,0-22.6-9.6-23.4-22l0,0c-0.8-12.9,9-24,21.9-24.8s24,9,24.8,21.9c0.8,12.9-9,24-21.9,24.8
            c0,0,0,0,0,0C39.9,87.1,39.5,87.2,39,87.2z M39,41.9c-0.5,0-0.9,0-1.3,0C25.6,42.6,16.4,53,17.1,65.1c0,0,0,0,0,0.1l0,0
            c0.7,12.1,11.1,21.3,23.2,20.5s21.3-11.1,20.5-23.2C60.1,50.9,50.6,41.9,39,41.9L39,41.9z"/>
        <path fill="#37414C" d="M39.2,69.2c-0.4,0-0.8-0.3-0.8-0.8s0.3-0.8,0.8-0.8c3.9,0,7-3.1,7-7c0-0.4,0.3-0.8,0.8-0.8
            s0.8,0.3,0.8,0.8l0,0C47.7,65.4,43.9,69.2,39.2,69.2z"/>
        <path fill="#37414C" d="M24.5,75.6c-0.4,0-0.7-0.3-0.7-0.8c0-0.3,0.2-0.6,0.5-0.7l9.5-3v-3.9c-2-1.6-3.1-4-3.1-6.6v-3.1
            c0-4.7,3.8-8.5,8.5-8.5s8.5,3.8,8.5,8.5l0,0v3.1c0,2.5-1.1,4.9-3.1,6.5v3.9l8.8,2.9c0.4,0.1,0.6,0.6,0.5,0.9s-0.6,0.6-0.9,0.5l0,0
            l-9.3-3c-0.3-0.1-0.5-0.4-0.5-0.7v-4.9c0-0.2,0.1-0.5,0.3-0.6c1.7-1.3,2.8-3.4,2.8-5.5v-3.1c0-3.9-3.1-7-7-7s-7,3.1-7,7v3.1
            c0,2.2,1.1,4.3,2.8,5.6c0.2,0.1,0.3,0.4,0.3,0.6v4.7c0,0.3-0.2,0.6-0.5,0.7l-10,3.2C24.7,75.6,24.6,75.6,24.5,75.6z"/>
        <rect fill="none" width="120" height="120"/>
    </g>
</g>
</symbol><symbol id="plan" viewBox="0 0 120 120">
<title>plan</title>
    <g id="Layer_2">
	<g id="Desktop-Step_1">
		<path fill="#FFFFFF" d="M85.8,99.2H27c-2.6,0-4.7-2.1-4.7-4.7v-77c0-2.6,2.1-4.7,4.7-4.7h56c2.6,0,4.7,2.1,4.7,4.7v57"/>
        <path fill="#37414B" d="M87.8,50.5c-0.4,0-0.8-0.3-0.8-0.8V17.9c0-2.2-1.8-3.9-3.9-3.9c0,0,0,0,0,0H27.3c-2.2,0-3.9,1.8-3.9,3.9
			v28.2c0,0.4-0.3,0.8-0.8,0.8s-0.8-0.3-0.8-0.8V17.9c0-3,2.4-5.4,5.4-5.4h55.8c3,0,5.4,2.4,5.4,5.4v31.9
			C88.5,50.2,88.2,50.5,87.8,50.5z"/>
        <path fill="#E1E4E6" d="M30.3,80.9c-0.9,7.4,6.5,18,6.5,18H49c0,0-11.3-11.8-8.9-21.7S30.3,80.9,30.3,80.9z"/>
        <path fill="#7FD4FF" d="M41.8,30.9h28l-3.5,7.3H41.8c-2.2,0.1-4-1.5-4.2-3.6C37.8,32.4,39.6,30.8,41.8,30.9z"/>
        <path fill="#7FD4FF" d="M41.8,85.6h28l-3.5,7.3H41.8c-2,0.3-3.9-1.1-4.2-3.1c-0.3-2,1.1-3.9,3.1-4.2
			C41.1,85.6,41.4,85.6,41.8,85.6z"/>
        <path fill="#7FD4FF" d="M70.1,77.3H39.3l0.1-7.3h30.7c2-0.3,3.9,1.1,4.2,3.1s-1.1,3.9-3.1,4.2C70.8,77.3,70.4,77.3,70.1,77.3
			L70.1,77.3z"/>
        <path fill="#E1E4E6" d="M55.3,57.5c-1.5,0-3-0.6-4-1.8c-1.3-1.6-1.1-4,0.6-5.3c0.2-0.2,0.4-0.3,0.7-0.4
			c11.6-6.9,18-15.6,17.9-24.4c0-2.3,2.1-4.2,4.8-4.2s4.8,1.8,4.8,4.1c0.1,11.7-7.7,22.8-22.1,31.3C57.2,57.2,56.2,57.5,55.3,57.5z"/>
        <path fill="#37414C" d="M55.3,58.2c-1.8,0-3.4-0.7-4.6-2.1c-0.8-1-1.2-2.3-1-3.6c0.3-1.4,1.1-2.6,2.4-3.3
			c11.4-6.8,17.6-15.2,17.6-23.8c0-1.2,0.5-2.4,1.4-3.2c1.1-1.1,2.6-1.7,4.2-1.7c3.1,0,5.6,2.1,5.6,4.9c0.1,11.9-7.9,23.3-22.5,31.9
			C57.4,57.9,56.4,58.2,55.3,58.2z M75.3,22.1c-1.2,0-2.3,0.4-3.1,1.2c-0.6,0.6-0.9,1.4-0.9,2.2c0.1,9.1-6.4,18-18.3,25
			c-0.9,0.5-1.5,1.3-1.7,2.3c-0.1,0.9,0.1,1.7,0.6,2.4c0.8,1,2.1,1.5,3.4,1.5c0.8,0,1.6-0.2,2.3-0.6c14.1-8.4,21.8-19.3,21.7-30.6
			C79.3,23.6,77.5,22.1,75.3,22.1L75.3,22.1z"/>
        <path fill="#FFFFFF" d="M73.3,99c4.5-5.7,6.8-12,6.8-18.5C80,68.9,72.2,58.1,58,49.9l0,0c-11.5-6.8-17.9-15.4-17.9-24.1
			c0-2.3-2.2-4.1-4.8-4.1l0,0c-2.7,0-4.8,1.9-4.8,4.2c0.1,11.5,7.9,22.5,22.1,30.9l0,0l0,0c11.5,6.6,17.8,15,17.9,23.8
			c0,6.4-3.3,12.8-9.6,18.4"/>
        <path fill="#37414C" d="M73.3,99.7c-0.4,0-0.8-0.3-0.8-0.7c0-0.2,0.1-0.3,0.2-0.5c4.4-5.6,6.7-11.7,6.6-18
			c-0.1-11.3-7.8-21.9-21.7-29.9l0,0c-11.7-7-18.2-15.8-18.3-24.8c0-1.9-1.8-3.4-4.1-3.4c-1.2,0-2.3,0.4-3.1,1.2
			c-0.6,0.6-0.9,1.4-0.9,2.2c0.1,11.2,7.8,22,21.7,30.3l0.1,0.1c11.6,6.7,18.1,15.3,18.2,24.4c0,6.6-3.4,13.2-9.9,19
			c-0.3,0.3-0.8,0.2-1.1-0.1c-0.3-0.3-0.2-0.8,0.1-1.1l0,0c6.2-5.5,9.4-11.7,9.4-17.8c-0.1-8.5-6.3-16.7-17.5-23.1h-0.1
			c-14.4-8.7-22.4-19.8-22.5-31.6c0-1.2,0.5-2.4,1.3-3.3c1.1-1.1,2.6-1.7,4.2-1.7c3.1,0,5.6,2.2,5.6,4.9c0.1,8.5,6.3,16.8,17.6,23.5
			h0.1c14.4,8.3,22.4,19.4,22.4,31.2c0,6.7-2.3,13-7,18.9C73.7,99.6,73.5,99.7,73.3,99.7z"/>
        <path fill="#E1E4E6" d="M40,80.9L40,80.9c-0.1-8.2,5.3-16.1,15.3-22.5l-8-5.1c-11.1,7.8-17,17.4-16.9,27.7l0,0"/>
        <path fill="#37414C" d="M49.4,99.6c-0.2,0-0.4-0.1-0.5-0.2c-6.3-5.7-9.7-12.1-9.7-18.5c-0.1-8.1,5.1-16,14.7-22.5l-6.6-4.2
			C36.6,61.8,31,71,31.1,80.9c0,6,2.2,11.8,6.5,17.4c0.3,0.3,0.2,0.8-0.1,1.1c-0.3,0.3-0.8,0.2-1.1-0.1c-4.5-5.8-6.8-11.9-6.8-18.3
			c-0.1-10.6,5.9-20.3,17.2-28.3c0.3-0.2,0.6-0.2,0.8,0l8,5.1c0.3,0.2,0.4,0.7,0.2,1c-0.1,0.1-0.1,0.2-0.2,0.2
			c-9.7,6.2-15,14-15,21.8c0,6,3.2,12,9.2,17.4c0.3,0.3,0.3,0.7,0.1,1.1C49.8,99.5,49.6,99.6,49.4,99.6L49.4,99.6z"/>
        <path fill="#7FD4FF" d="M55.4,70h14.7c2-0.3,3.9,1.1,4.2,3.1s-1.1,3.9-3.1,4.2c-0.4,0.1-0.7,0.1-1.1,0h-15
			C52.8,77.3,53.1,70,55.4,70z"/>
        <path fill="#37414C" d="M70.1,78.1H40.3c-0.4,0-0.8-0.3-0.8-0.8s0.3-0.8,0.8-0.8h29.7c1.6,0.3,3.1-0.8,3.4-2.4
			c0.3-1.6-0.8-3.1-2.4-3.4c-0.4-0.1-0.7-0.1-1.1,0H43.5c-0.4,0-0.8-0.3-0.8-0.8s0.3-0.8,0.8-0.8h26.5c2.8,0,5,2,5,4.4
			S72.8,78.1,70.1,78.1z"/>
        <path fill="#7FD4FF" d="M56.5,92.9H41.8c-2,0.3-3.9-1.1-4.2-3.1c-0.3-2,1.1-3.9,3.1-4.2c0.4-0.1,0.7-0.1,1.1,0h15
			C59.1,85.6,58.8,92.9,56.5,92.9z"/>
        <path fill="#37414C" d="M65.9,93.7H41.8c-2.8,0-5-2-5-4.4s2.2-4.4,5-4.4h27.6c0.4,0,0.8,0.3,0.8,0.8s-0.3,0.8-0.8,0.8H41.8
			c-1.6-0.3-3.1,0.8-3.4,2.4c-0.3,1.6,0.8,3.1,2.4,3.4c0.4,0.1,0.7,0.1,1.1,0h24.1c0.4,0,0.8,0.3,0.8,0.8S66.3,93.7,65.9,93.7z"/>
        <path fill="#84D1F5" d="M56.5,38.2H41.8c-2.2,0.1-4-1.5-4.2-3.6c0.2-2.2,2.1-3.8,4.2-3.6h15C59.1,30.9,58.8,38.2,56.5,38.2z"/>
        <path fill="#37414C" d="M65.9,38.9H41.8c-2.8,0-5-2-5-4.4s2.2-4.4,5-4.4h27.6c0.4,0,0.8,0.3,0.8,0.8s-0.3,0.8-0.8,0.8H41.8
			c-1.8-0.1-3.3,1.1-3.5,2.9c0.2,1.8,1.7,3,3.5,2.9h24.1c0.4,0,0.8,0.3,0.8,0.8S66.3,38.9,65.9,38.9z"/>
        <path fill="#E1E4E6" d="M30.3,80.9"/>
        <path fill="#37414B" d="M76.7,99.8H27.3c-3,0-5.4-2.4-5.4-5.4V61.3c0-0.4,0.3-0.8,0.8-0.8s0.8,0.3,0.8,0.8v33.1
			c0,2.2,1.8,3.9,3.9,3.9h49.4c0.4,0,0.8,0.3,0.8,0.8S77.1,99.8,76.7,99.8L76.7,99.8z"/>
        <path fill="#E1E4E6" d="M64.6,49.8h29.6c1.7,0,3.1,1.4,3.1,3.1v50.8c0,1.7-1.4,3.1-3.1,3.1H64.6c-1.7,0-3.1-1.4-3.1-3.1V52.9
			C61.5,51.1,62.9,49.8,64.6,49.8z"/>
        <path fill="#37414B" d="M94.3,107.5H64.6c-2.1,0-3.9-1.7-3.9-3.8c0,0,0,0,0,0V52.9c0-2.1,1.7-3.9,3.9-3.9l0,0h29.6
			c2.1,0,3.9,1.7,3.9,3.8v50.8C98.1,105.8,96.4,107.5,94.3,107.5C94.3,107.5,94.3,107.5,94.3,107.5z M64.6,50.5
			c-1.3,0-2.4,1.1-2.4,2.3v50.8c0,1.3,1.1,2.4,2.3,2.4c0,0,0,0,0,0h29.6c1.3,0,2.4-1,2.4-2.3c0,0,0,0,0,0V52.9
			c0-1.3-1.1-2.4-2.4-2.3L64.6,50.5z"/>
        <path fill="#37414B" d="M82.9,98.2h-7c-0.4,0-0.8-0.3-0.8-0.8s0.3-0.8,0.8-0.8h7c0.4,0,0.8,0.3,0.8,0.8S83.4,98.2,82.9,98.2z"/>
        <path fill="#FFFFFF" d="M72.2,71l7.3-7.3l7.3,7.3c4.3,4,4.6,10.7,0.6,15.1c-4,4.3-10.7,4.6-15.1,0.6c-4.3-4-4.6-10.7-0.6-15.1
			C71.8,71.4,72,71.2,72.2,71z"/>
        <path fill="#37414B" d="M79.4,90.3c-6.3,0-11.4-5.1-11.4-11.4c0-3.2,1.3-6.2,3.7-8.4l7.2-7.3c0.3-0.3,0.8-0.3,1.1,0l7.3,7.3
			c4.6,4.3,4.9,11.5,0.6,16.1C85.6,89,82.6,90.3,79.4,90.3z M79.4,64.8l-6.7,6.7l0,0c-2,1.9-3.2,4.5-3.2,7.3c0,5.5,4.4,9.9,9.9,9.9
			s9.9-4.4,9.9-9.9c0-2.8-1.1-5.4-3.2-7.3L79.4,64.8z M72.2,71L72.2,71z"/>
        <rect fill="none" width="120" height="120"/>
	</g>
</g>
</symbol><symbol id="time" viewBox="0 0 120 120">
<title>time</title>
    <g id="Layer_2">
    <g id="Desktop-Step_4">
        <path fill="#E0E3E5" d="M90.5,99.6H31.7c-2.6,0-4.7-2.1-4.7-4.7v-77c0-2.6,2.1-4.7,4.7-4.7h56c2.6,0,4.7,2.1,4.7,4.7v57"/>
        <path fill="#37414B" d="M27.3,58.2c-0.4,0-0.8-0.3-0.8-0.8l0,0V18.3c0-3,2.4-5.4,5.4-5.4c0,0,0,0,0,0h55.8c3,0,5.4,2.4,5.4,5.4v29
            c0,0.4-0.3,0.8-0.8,0.8s-0.8-0.3-0.8-0.8v-29c0-2.2-1.8-3.9-3.9-3.9H32c-2.2,0-3.9,1.8-3.9,3.9v39.2
            C28.1,57.9,27.7,58.2,27.3,58.2C27.3,58.2,27.3,58.2,27.3,58.2z"/>
        <path fill="#37414B" d="M81.3,100.2H32c-3,0-5.4-2.4-5.4-5.4v-24c0-0.4,0.3-0.8,0.8-0.8s0.8,0.3,0.8,0.8v24c0,2.2,1.8,3.9,3.9,3.9
            h49.3c0.4,0,0.8,0.3,0.8,0.8S81.8,100.2,81.3,100.2z"/>
        <path fill="#FFFFFF" d="M97.7,98.5l-1.1,1.6c-0.7,1.1-1.1,2.4-1.1,3.7v2.3c0,0.6-0.5,1.1-1.1,1.1H81.3c-0.6,0-1.1-0.5-1.1-1.1
            v-2.3c0-1.3-0.4-2.6-1.1-3.7L78,98.5"/>
        <path fill="#37414C" d="M94.5,107.9H81.3c-1,0-1.8-0.8-1.8-1.8v-2.3c0-1.2-0.4-2.3-1-3.2l-1.1-1.6c-0.2-0.3-0.1-0.8,0.2-1
            s0.8-0.1,1,0.2l1.1,1.6c0.8,1.2,1.3,2.6,1.3,4.1v2.3c0,0.2,0.2,0.3,0.3,0.3h13.1c0.2,0,0.3-0.2,0.3-0.3v-2.3
            c0-1.4,0.4-2.9,1.2-4.1l1.1-1.6c0.2-0.3,0.7-0.4,1-0.2s0.4,0.7,0.2,1l-1.1,1.6c-0.6,1-1,2.1-1,3.2v2.3
            C96.3,107,95.5,107.9,94.5,107.9z"/>
        <path fill="#FFFFFF" d="M97.7,67.8l-1.1-1.6c-0.7-1.1-1.1-2.4-1.1-3.7v-2.3c0-0.6-0.5-1.1-1.1-1.1H81.3c-0.6,0-1.1,0.5-1.1,1.1
            v2.3c0,1.3-0.4,2.6-1.1,3.6L78,67.8"/>
        <path fill="#37414C" d="M97.7,68.6c-0.2,0-0.5-0.1-0.6-0.3L96,66.6c-0.8-1.2-1.2-2.6-1.2-4.1v-2.3c0-0.2-0.2-0.3-0.3-0.3H81.3
            c-0.2,0-0.3,0.2-0.3,0.3v2.3c0,1.4-0.4,2.9-1.2,4.1l-1.1,1.6c-0.2,0.3-0.7,0.4-1,0.2s-0.4-0.7-0.2-1l1.1-1.6c0.6-1,1-2.1,1-3.2
            v-2.3c0-1,0.8-1.8,1.8-1.8h13.1c1,0,1.8,0.8,1.8,1.8v2.3c0,1.2,0.4,2.3,1,3.2l1.1,1.6c0.2,0.3,0.1,0.8-0.2,1
            C98.1,68.5,97.9,68.6,97.7,68.6L97.7,68.6z"/>
        <path fill="#84D1F5" d="M79.1,67.8h17.5c2.4,0,4.4,2,4.4,4.4v21.9c0,2.4-2,4.4-4.4,4.4H79.1c-2.4,0-4.4-2-4.4-4.4V72.2
            C74.7,69.8,76.7,67.8,79.1,67.8z"/>
        <path fill="#37414C" d="M96.7,99.2H79.1c-2.8,0-5.1-2.3-5.1-5.1V72.2c0-2.8,2.3-5.1,5.1-5.1h17.5c2.8,0,5.1,2.3,5.1,5.1v21.9
            C101.8,96.9,99.5,99.2,96.7,99.2z M79.1,68.6c-2,0-3.6,1.6-3.6,3.6v21.9c0,2,1.6,3.6,3.6,3.6h17.5c2,0,3.6-1.6,3.6-3.6V72.2
            c0-2-1.6-3.6-3.6-3.6H79.1z"/>
        <path fill="#FFFFFF" d="M87.9,87.8l7-6.9c1.7-1.6,1.7-4.3,0-6c0,0,0,0,0,0l0,0c-1.6-1.7-4.3-1.7-6,0c0,0,0,0,0,0l-1,1l-1-1
            c-1.6-1.7-4.3-1.7-6,0c0,0,0,0,0,0l0,0c-1.7,1.6-1.7,4.3,0,6c0,0,0,0,0,0l4.6,4.6"/>
        <path fill="#37414C" d="M87.9,88.5c-0.4,0-0.7-0.3-0.7-0.8c0-0.2,0.1-0.4,0.2-0.5l7-7c1.4-1.4,1.4-3.5,0-4.9s-3.5-1.4-4.9,0l-1,1
            c-0.3,0.3-0.8,0.3-1.1,0l-1-1c-1.4-1.4-3.5-1.4-4.9,0s-1.4,3.5,0,4.9l4.6,4.6c0.3,0.3,0.3,0.8,0,1.1c-0.3,0.3-0.8,0.3-1.1,0l0,0
            l-4.6-4.6c-1.7-2.2-1.2-5.3,1-7c1.8-1.3,4.2-1.3,6,0l0.5,0.5l0.5-0.5c2.2-1.7,5.3-1.2,7,1c1.3,1.8,1.3,4.2,0,6l-7,7
            C88.2,88.4,88,88.5,87.9,88.5z"/>
        <path fill="#37414C" d="M91.2,93.6h-6.6c-0.4,0-0.8-0.3-0.8-0.8s0.3-0.8,0.8-0.8h6.6c0.4,0,0.8,0.3,0.8,0.8S91.6,93.6,91.2,93.6z"/>
        <path fill="#FFFFFF" d="M76.2,32.7c0.1-2.5,2.3-4.5,4.8-4.3s4.5,2.3,4.3,4.8s-2.3,4.5-4.8,4.3c0,0,0,0,0,0
            C78,37.4,76.1,35.3,76.2,32.7C76.2,32.7,76.2,32.7,76.2,32.7z"/>
        <path fill="#37414B" d="M80.8,38.3h-0.3c-2.9-0.1-5.2-2.5-5.2-5.4c0.1-2.9,2.5-5.2,5.4-5.2c2.9,0.1,5.2,2.5,5.2,5.4
            C85.9,35.9,83.6,38.2,80.8,38.3z M80.8,29.1c-2,0-3.7,1.6-3.8,3.6l0,0c-0.1,2.1,1.5,3.9,3.6,4c2.1,0.1,3.9-1.5,4-3.6
            c0.1-2.1-1.5-3.9-3.6-4c0,0,0,0,0,0L80.8,29.1z M76.2,32.7L76.2,32.7z"/>
        <path fill="#FFFFFF" d="M44.5,49.9c0.1-2.5,2.3-4.5,4.8-4.4c2.5,0.1,4.5,2.3,4.4,4.8c-0.1,2.5-2.3,4.5-4.8,4.4c0,0,0,0,0,0
            C46.4,54.6,44.4,52.5,44.5,49.9z"/>
        <path fill="#37414B" d="M49.1,55.5h-0.3c-2.9-0.1-5.2-2.5-5.2-5.4c0.1-2.9,2.5-5.2,5.4-5.2s5.2,2.5,5.2,5.4
            C54.2,53.1,51.9,55.4,49.1,55.5z M49.1,46.3c-2,0-3.7,1.6-3.8,3.7c-0.1,2.1,1.5,3.9,3.6,4c0,0,0,0,0,0c2.1,0,3.8-1.7,3.8-3.8
            c0-2-1.5-3.6-3.4-3.8L49.1,46.3z"/>
        <path fill="#FFFFFF" d="M60.6,63.3c0.1-2.5,2.3-4.5,4.8-4.4c2.5,0.1,4.5,2.3,4.4,4.8c-0.1,2.5-2.2,4.5-4.8,4.4
            C62.5,68,60.5,65.8,60.6,63.3L60.6,63.3z"/>
        <path fill="#37414B" d="M65.2,68.8h-0.3c-2.9-0.1-5.2-2.6-5.1-5.6l0,0c0.1-2.9,2.6-5.2,5.6-5.1c2.9,0.1,5.2,2.6,5.1,5.6
            C70.4,66.6,68,68.9,65.2,68.8L65.2,68.8z M65.2,59.7c-2,0-3.7,1.6-3.8,3.6l0,0c-0.1,2.1,1.5,3.9,3.6,4s3.9-1.5,4-3.6
            c0.1-2.1-1.5-3.9-3.6-4c0,0,0,0,0,0H65.2z M60.6,63.3L60.6,63.3z"/>
        <path fill="#FFFFFF" d="M35.9,82.4c0.1-2.5,2.3-4.5,4.8-4.4c2.5,0.1,4.5,2.3,4.4,4.8c-0.1,2.5-2.3,4.5-4.8,4.4c0,0,0,0,0,0
            C37.7,87.1,35.8,84.9,35.9,82.4z"/>
        <path fill="#37414B" d="M40.5,88h-0.3c-2.9-0.1-5.2-2.5-5.2-5.4s2.5-5.2,5.4-5.2c2.9,0.1,5.2,2.5,5.2,5.4
            C45.6,85.7,43.3,87.9,40.5,88z M40.5,78.8c-2,0-3.7,1.6-3.8,3.6l0,0c0,1,0.3,2,1,2.8c1.5,1.5,3.9,1.5,5.4-0.1
            c1.4-1.4,1.5-3.6,0.3-5.1c-0.7-0.8-1.6-1.2-2.6-1.3H40.5z M35.9,82.5L35.9,82.5z"/>
        <path fill="#37414B" d="M41.4,78.9h-0.2c-0.4-0.1-0.6-0.5-0.5-0.9l6-23.7c0.1-0.4,0.5-0.7,0.9-0.6c0.4,0.1,0.7,0.5,0.6,0.9
            c0,0,0,0.1,0,0.1l-6,23.7C42.1,78.7,41.8,78.9,41.4,78.9z"/>
        <path fill="#37414B" d="M62,61c-0.2,0-0.3-0.1-0.5-0.2l-9.1-7.5c-0.3-0.3-0.4-0.8-0.1-1.1c0.3-0.3,0.8-0.4,1.1-0.1l0,0l9.1,7.5
            c0.3,0.3,0.4,0.7,0.1,1.1C62.5,60.9,62.2,61,62,61z"/>
        <path fill="#37414B" d="M67.8,60.5c-0.4,0-0.7-0.3-0.7-0.8c0-0.1,0-0.2,0.1-0.3l11-22.7c0.2-0.4,0.6-0.5,1-0.3
            c0.4,0.2,0.5,0.6,0.3,1l-11,22.7C68.4,60.4,68.1,60.5,67.8,60.5z"/>
        <path fill="#37414B" d="M59.3,24.6H37.5c-0.4,0-0.8-0.3-0.8-0.8s0.3-0.8,0.8-0.8h21.9c0.4,0,0.8,0.3,0.8,0.8S59.7,24.6,59.3,24.6z
            "/>
        <path fill="#37414B" d="M59.3,35.2H37.5c-0.4,0-0.8-0.3-0.8-0.8s0.3-0.8,0.8-0.8h21.9c0.4,0,0.8,0.3,0.8,0.8S59.7,35.2,59.3,35.2z
            "/>
        <rect fill="none" width="120" height="120"/>
    </g>
</g>
</symbol></svg>